<?xml version="1.0" encoding="UTF-8" standalone="no"?>
<!DOCTYPE svg PUBLIC "-//W3C//DTD SVG 1.1//EN" "http://www.w3.org/Graphics/SVG/1.1/DTD/svg11.dtd">
<!-- Generated by Microsoft Visio, SVG Export cover_faq.svg Page-1 -->
<svg xmlns="http://www.w3.org/2000/svg" xmlns:xlink="http://www.w3.org/1999/xlink" xmlns:ev="http://www.w3.org/2001/xml-events"
		xmlns:v="http://schemas.microsoft.com/visio/2003/SVGExtensions/" width="4.884in" height="6.87285in"
		viewBox="0 0 351.648 494.845" xml:space="preserve" color-interpolation-filters="sRGB" class="st6">
	<v:documentProperties v:langID="1033" v:metric="true" v:viewMarkup="false"/>

	<style type="text/css">
	<![CDATA[
		.st1 {fill:none;stroke:#69becb;stroke-width:3}
		.st2 {fill:#69becb;stroke:none;stroke-linecap:butt;stroke-width:1.78478}
		.st3 {fill:none;stroke:none;stroke-width:0.25}
		.st4 {fill:#69becb;font-family:Arial;font-size:4.33333em;letter-spacing:0.0903847em}
		.st5 {fill:none;stroke:#69becb;stroke-width:0.5}
		.st6 {fill:none;fill-rule:evenodd;font-size:12px;overflow:visible;stroke-linecap:square;stroke-miterlimit:3}
	]]>
	</style>

	<g v:mID="0" v:index="1" v:groupContext="foregroundPage">
		<title>Page-1</title>
		<v:pageProperties v:drawingScale="0.0393701" v:pageScale="0.0393701" v:drawingUnits="24" v:shadowOffsetX="9"
				v:shadowOffsetY="-9"/>
		<g id="group48-1" transform="translate(3,-3)" v:mID="48" v:groupContext="group">
			<title>Sheet.48</title>
			<g id="shape40-2" v:mID="40" v:groupContext="shape">
				<title>Rectangle.40</title>
				<v:userDefs>
					<v:ud v:nameU="visVersion" v:val="VT0(15):26"/>
					<v:ud v:nameU="visMasterStencil" v:prompt="" v:val="VT4(Basic_M.vssx)"/>
				</v:userDefs>
				<rect x="0" y="6.00001" width="345.648" height="488.845" class="st1"/>
			</g>
			<g id="shape41-4" v:mID="41" v:groupContext="shape" transform="translate(31.0919,-408.124)">
				<title>Sheet.41</title>
				<path d="M52.07 457.44 A15.0379 15.0379 -180 0 0 45.83 450.87 A28.6684 28.6684 -180 0 0 37 447.61 A43.5629 43.5629
							 -180 0 0 30.71 446.75 C29.12 446.66 27.52 446.68 25.92 446.66 A28.8574 28.8574 -180 0 0 18.42 447.61
							 A18.3217 18.3217 -180 0 0 11.9 450.57 A11.0764 11.0764 -180 0 0 7.7 456.61 C7.16 458.56 6.57 460.52
							 5.96 462.44 C4.33 467.55 2.63 472.67 0.98 477.81 A19.0058 19.0058 -180 0 0 0 485.98 A8.40505 8.40505
							 -180 0 0 2.28 490.91 A10.5487 10.5487 -180 0 0 6.63 493.48 A25.4106 25.4106 -180 0 0 13.53 494.63 C15.9
							 494.75 18.28 494.77 20.64 494.85 L24.9 494.72 A42.8071 42.8071 -180 0 0 30.96 494.11 A28.3947 28.3947
							 -180 0 0 37.05 492.42 A20.8497 20.8497 -180 0 0 44.63 487.14 A29.0593 29.0593 -180 0 0 49.58 479.38
							 A47.8827 47.8827 -180 0 0 52.28 471.72 A41.9275 41.9275 -180 0 0 53.26 467.25 A28.6684 28.6684 -180
							 0 0 53.43 463.51 A13.6826 13.6826 -180 0 0 52.07 457.44 ZM45.28 462.48 A1.06203 1.06203 0 0 1 44.46
							 463.32 A3.36202 3.36202 0 0 1 43.74 463.39 L33.68 463.57 L26.15 463.71 A3.81811 3.81811 -180 0 0 25.33
							 463.79 A1.0881 1.0881 -180 0 0 24.81 464.1 a0.377902 0.377902 -180 0 0 0.260622 0.651555 A3.38157 3.38157
							 -180 0 0 25.44 464.75 C28.86 464.72 32.29 464.67 35.72 464.67 C37.61 464.67 39.5 464.75 41.38 464.82
							 A5.6164 5.6164 0 0 1 42.73 465.08 A1.81784 1.81784 0 0 1 44.03 467.53 A5.03 5.03 0 0 1 39.83 471.44
							 A22.0225 22.0225 0 0 1 36.37 471.74 C32.21 471.81 28.06 471.81 23.91 471.84 C23.46 471.84 23.08 472.03
							 23.12 472.28 C23.2 472.68 23.57 472.65 23.85 472.65 L31.41 472.71 C33.91 472.76 36.42 472.8 38.93 472.88
							 A6.51555 6.51555 0 0 1 40.39 473.1 A1.40736 1.40736 0 0 1 41.52 474.78 A4.02009 4.02009 0 0 1 38.84
							 478.39 A10.7311 10.7311 0 0 1 34.88 479.18 C30.56 479.28 26.24 479.33 21.92 479.39 C21.77 479.39 21.63
							 479.39 21.48 479.39 C21.1 479.44 20.83 479.66 20.88 479.91 a0.553821 0.553821 -180 0 0 0.612461 0.462604
							 C21.98 480.37 22.46 480.42 22.95 480.42 C25.07 480.42 27.18 480.37 29.31 480.42 C30.82 480.42 32.33
							 480.53 33.87 480.62 A2.37817 2.37817 0 0 1 35.88 482.14 A1.48554 1.48554 0 0 1 35.55 483.44 A5.9096
							 5.9096 0 0 1 32.9 485.36 A18.0872 18.0872 0 0 1 28.53 486.46 A46.6709 46.6709 0 0 1 20.39 486.89 A17.7744
							 17.7744 0 0 1 13.47 485.4 A5.1147 5.1147 0 0 1 10.38 481.49 A8.73735 8.73735 0 0 1 10.46 477.95 C11
							 475.7 11.59 473.47 12.22 471.25 C12.99 468.57 13.81 465.88 14.66 463.25 A20.7325 20.7325 0 0 1 16.49
							 459.07 A8.39202 8.39202 0 0 1 21.57 455.16 A24.0163 24.0163 0 0 1 26.86 454.19 A29.118 29.118 0 0 1
							 32.19 454.28 C35.51 454.65 38.71 455.41 41.59 457.22 A9.08267 9.08267 0 0 1 45 460.77 A2.52803 2.52803
							 0 0 1 45.28 462.48 Z" class="st2"/>
			</g>
			<g id="shape42-6" v:mID="42" v:groupContext="shape" transform="translate(101.902,-181.286)">
				<title>Sheet.42</title>
				<desc>FAQ</desc>
				<v:textBlock v:margins="rect(4,4,4,4)" v:tabSpace="42.5197"/>
				<v:textRect cx="70.9219" cy="482.798" width="141.85" height="24.0945"/>
				<rect x="0" y="470.751" width="141.844" height="24.0945" class="st3"/>
				<text x="10.42" y="498.4" class="st4" v:langID="2052"><v:paragraph v:horizAlign="1"/><v:tabList/>FAQ</text>			</g>
			<g id="shape44-9" v:mID="44" v:groupContext="shape" transform="translate(6.99738,-6.31249)">
				<title>Rectangle.44</title>
				<v:userDefs>
					<v:ud v:nameU="visVersion" v:val="VT0(15):26"/>
					<v:ud v:nameU="visMasterStencil" v:prompt="" v:val="VT4(Basic_M.vssx)"/>
				</v:userDefs>
				<rect x="0" y="18.625" width="331.654" height="476.22" class="st5"/>
			</g>
		</g>
	</g>
</svg>
