<?xml version="1.0" standalone="no"?><!DOCTYPE svg PUBLIC "-//W3C//DTD SVG 1.1//EN" "http://www.w3.org/Graphics/SVG/1.1/DTD/svg11.dtd"><svg t="1623897549573" class="icon" viewBox="0 0 1024 1024" version="1.1" xmlns="http://www.w3.org/2000/svg" p-id="1191" xmlns:xlink="http://www.w3.org/1999/xlink" width="200" height="200"><defs><style type="text/css"></style></defs><path d="M512 512m-512 0a512 512 0 1 0 1024 0 512 512 0 1 0-1024 0Z" fill="#FFFFFF" p-id="1192"></path><path d="M284.444444 512m28.444445 0l398.222222 0q28.444444 0 28.444445 28.444444l0 0q0 28.444444-28.444445 28.444445l-398.222222 0q-28.444444 0-28.444445-28.444445l0 0q0-28.444444 28.444445-28.444444Z" fill="#EB1A3C" p-id="1193"></path><path d="M512 56.888889c-250.936889 0-455.111111 204.174222-455.111111 455.111111s204.174222 455.111111 455.111111 455.111111 455.111111-204.174222 455.111111-455.111111-204.174222-455.111111-455.111111-455.111111m0-56.888889a512 512 0 1 1 0 1024 512 512 0 0 1 0-1024z" fill="#EB1A3C" p-id="1194"></path></svg>