<svg id="a6867d19-80d3-4cbc-9c16-8e0c39f72ee1" data-name="图层 1" xmlns="http://www.w3.org/2000/svg" viewBox="0 0 342.9 120"><defs><style>.ab28a65b-58fe-415a-a134-6f18d6e193d6{fill:#69becc;}.e8cc388b-a3c5-46e8-ad89-2d45695a0851{fill:#fff;}</style></defs><rect class="ab28a65b-58fe-415a-a134-6f18d6e193d6" width="342.9" height="120"/><path class="e8cc388b-a3c5-46e8-ad89-2d45695a0851" d="M104.41,39.09A23.08,23.08,0,0,0,94.84,29a44,44,0,0,0-13.56-5,66.86,66.86,0,0,0-9.64-1.31c-2.44-.15-4.9-.11-7.36-.14A44.29,44.29,0,0,0,52.77,24a28.12,28.12,0,0,0-10,4.55,17,17,0,0,0-6.45,9.26c-.83,3-1.73,6-2.68,8.95C31.15,54.6,28.54,62.46,26,70.35a29.17,29.17,0,0,0-1.5,12.54A12.9,12.9,0,0,0,28,90.46a16.19,16.19,0,0,0,6.67,3.94,39,39,0,0,0,10.6,1.77c3.64.18,7.28.22,10.91.33l6.54-.2a65.7,65.7,0,0,0,9.29-.93,43.58,43.58,0,0,0,9.35-2.6A32,32,0,0,0,93,84.68a44.6,44.6,0,0,0,7.59-11.91A73.49,73.49,0,0,0,104.74,61a64.35,64.35,0,0,0,1.5-6.85,44,44,0,0,0,.27-5.74A21,21,0,0,0,104.41,39.09ZM94,46.83a1.63,1.63,0,0,1-1.26,1.29,5.16,5.16,0,0,1-1.11.11l-15.44.27-11.55.21a5.86,5.86,0,0,0-1.26.13,1.67,1.67,0,0,0-.8.47.58.58,0,0,0,.4,1,5.19,5.19,0,0,0,.56,0c5.26-.05,10.52-.13,15.78-.13,2.9,0,5.8.13,8.69.24a8.62,8.62,0,0,1,2.07.4,2.79,2.79,0,0,1,2,3.75,7.72,7.72,0,0,1-6.45,6,33.8,33.8,0,0,1-5.31.47c-6.38.1-12.76.11-19.13.15-.69,0-1.27.3-1.2.67.12.62.68.57,1.12.58l11.6.08c3.84.08,7.69.15,11.54.27a10,10,0,0,1,2.24.34,2.16,2.16,0,0,1,1.74,2.58,6.17,6.17,0,0,1-4.12,5.54,16.47,16.47,0,0,1-6.07,1.21c-6.63.15-13.27.22-19.9.32-.23,0-.45,0-.67,0-.58.07-1,.41-.92.79a.85.85,0,0,0,.94.71c.74,0,1.48.08,2.23.08,3.25,0,6.5-.08,9.76,0,2.32,0,4.64.17,7,.3A3.65,3.65,0,0,1,79.57,77a2.28,2.28,0,0,1-.51,2A9.07,9.07,0,0,1,75,81.94a27.76,27.76,0,0,1-6.71,1.69,71.63,71.63,0,0,1-12.5.66A27.28,27.28,0,0,1,45.17,82a7.85,7.85,0,0,1-4.74-6,13.41,13.41,0,0,1,.12-5.43q1.26-5.18,2.71-10.29C44.44,56.17,45.69,52.05,47,48a31.82,31.82,0,0,1,2.81-6.41,12.88,12.88,0,0,1,7.8-6,36.86,36.86,0,0,1,8.12-1.48,44.69,44.69,0,0,1,8.18.13c5.09.57,10,1.73,14.42,4.51a13.94,13.94,0,0,1,5.24,5.45A3.88,3.88,0,0,1,94,46.83Z"/><path class="e8cc388b-a3c5-46e8-ad89-2d45695a0851" d="M134,37.39a63.93,63.93,0,0,1-3.29,5.51V64.09H128V46.66a59.93,59.93,0,0,1-4,4.59,22.56,22.56,0,0,0-1.74-2.65,46.28,46.28,0,0,0,9.19-12.12ZM133.31,29a64.17,64.17,0,0,1-9.43,9.91,15.73,15.73,0,0,0-1.47-2.34,45,45,0,0,0,8.2-8.64ZM132,61.36A23.36,23.36,0,0,0,135.53,54l2.29.87c-.83,2.49-1.94,5.66-3.52,7.72Zm26.86-10.14H133.55V48.8h25.31Zm-15.1-14.78c.12-.83.28-1.82.44-2.85H133.9V31.17h10.62c.16-1.19.28-2.38.35-3.37l3,.16c-.15,1-.31,2.14-.51,3.21h11.21v2.42H147.05l-.55,2.85h10.69v9.78H135.64V36.44ZM142,38.66h-3.92V44H142Zm7.09,22.58c1.27,0,1.47-.44,1.63-3.77a6.19,6.19,0,0,0,2.33.92c-.27,4.15-1.07,5.14-3.68,5.14h-5.82c-3.29,0-4.16-.71-4.16-3.32V54.27H142v5.94c0,.83.24,1,1.78,1Zm-2.81-3.92a44,44,0,0,0-2.81-5.07l2.18-.8c1,1.55,2.29,3.65,2.93,4.88Zm2-18.66h-4.12V44h4.12ZM150.46,44h4.24V38.66h-4.24Zm4.4,9.58a44.24,44.24,0,0,1,4,7.57l-2.38,1.07a39.29,39.29,0,0,0-3.88-7.73Z"/><path class="e8cc388b-a3c5-46e8-ad89-2d45695a0851" d="M167.53,37.39c-1,.71-2.14,1.39-3.28,2.06a10,10,0,0,0-1.83-2,30.51,30.51,0,0,0,11.21-9.67l2.89.6a22.32,22.32,0,0,1-1.5,2.06h9.82l.52-.16,1.9,1.15a17.1,17.1,0,0,1-2.57,3.37h9V45.19H167.53Zm29.79,9.51V49H163.77V46.9Zm-28.6,3.8h23.81V64h-3V62.74H171.61v1.39h-2.89Zm1.55-11.65h8.91V36.76h-8.91Zm0,4.16h8.91V40.92h-8.91Zm3-10.73a29,29,0,0,1-2.38,2.3h10.26a14.5,14.5,0,0,0,2.26-2.3Zm-1.63,20.4v2.77h17.95V52.88Zm17.95,7.72v-3H171.61v3Zm1.3-23.84h-9v2.29h9Zm0,4.16h-9v2.29h9Z"/><path class="e8cc388b-a3c5-46e8-ad89-2d45695a0851" d="M214.47,28.87a60.08,60.08,0,0,1-4,8.16v27h-2.81V41.27a38.16,38.16,0,0,1-4.4,5.23,14.76,14.76,0,0,0-1.66-2.89A43.91,43.91,0,0,0,211.7,28Zm24.09,13.71h-2.93V54h-2.85V51.89h-8.6c-1,4.67-3.68,9.15-10.06,12.28a12.48,12.48,0,0,0-1.94-2.26c5.66-2.49,8.08-6.18,9.07-10h-6.78V49.16h7.29a36.57,36.57,0,0,0,.24-4.6v-2h-9.74V39.85H222V33.39h-7V30.62h20.6v9.23h2.93Zm-5.78,0h-7.89v2a36.19,36.19,0,0,1-.24,4.6h8.13Zm-7.89-2.73h7.89V33.39h-7.89Z"/><path class="e8cc388b-a3c5-46e8-ad89-2d45695a0851" d="M255.67,51.57c-.67-1.31-2.34-3.88-3.68-5.9V64H249.1V46.5a42.24,42.24,0,0,1-5.75,10.34,13.14,13.14,0,0,0-1.46-2.65,40.69,40.69,0,0,0,6.81-12.44h-6.26V39h6.66V33c-1.83.36-3.69.68-5.43.91a14.29,14.29,0,0,0-.87-2.29c4.43-.72,9.62-1.86,12.59-3.17l1.79,2.34A36.46,36.46,0,0,1,252,32.36V39h5.82v2.77H252v.71c1.23,1.39,4.63,5.74,5.46,6.81Zm17.91,2.1V64h-2.9V54.15l-12.91,2.14-.47-2.82,13.38-2.14V27.88h2.9v23l4.63-.71.44,2.69Zm-7.65-5.27a34.2,34.2,0,0,0-7-5.78l1.82-1.74a34.21,34.21,0,0,1,7.09,5.58ZM266.8,38a30.62,30.62,0,0,0-6.3-5.63l1.87-1.7A29.21,29.21,0,0,1,268.82,36Z"/><path class="e8cc388b-a3c5-46e8-ad89-2d45695a0851" d="M295.28,47.89l-4.75,1.42V60.52c0,1.67-.43,2.46-1.46,2.94s-2.66.55-5.39.51a9.61,9.61,0,0,0-.91-2.69c1.9,0,3.6,0,4.08,0s.79-.2.79-.76V50.19l-4.75,1.38-.84-2.89c1.59-.36,3.49-.83,5.59-1.43V38.62h-5.07V35.85h5.07V27.92h2.89v7.93h4.36v2.77h-4.36v7.84c1.43-.39,2.93-.83,4.36-1.27Zm21.08-4.44a29,29,0,0,1-8,13,27,27,0,0,0,10.22,5.11,12,12,0,0,0-1.9,2.54,28.54,28.54,0,0,1-10.58-5.74,36.42,36.42,0,0,1-11.25,5.66,11.1,11.1,0,0,0-1.59-2.65,32.63,32.63,0,0,0,10.74-5,31.82,31.82,0,0,1-6.5-10.86l.12,0h-1.31V42.74h8.48v-5.9h-9.27V34.1h9.27V27.88h2.89V34.1h9.47v2.74h-9.47v5.9h6.3l.48-.12Zm-16,2a26.9,26.9,0,0,0,5.83,9.11,24.15,24.15,0,0,0,6.38-9.11Z"/><path class="e8cc388b-a3c5-46e8-ad89-2d45695a0851" d="M124.42,76h6.23a6.54,6.54,0,0,1,3,.65,5.66,5.66,0,0,1,2.06,1.79,7.92,7.92,0,0,1,1.19,2.65,13.74,13.74,0,0,1,0,6.5,7.83,7.83,0,0,1-1.19,2.65A5.66,5.66,0,0,1,133.65,92a6.54,6.54,0,0,1-3,.65h-6.23Zm2.63,14.3h2.59a5.88,5.88,0,0,0,2.52-.46,3.7,3.7,0,0,0,1.54-1.26,4.82,4.82,0,0,0,.76-1.89,13.91,13.91,0,0,0,0-4.7,4.82,4.82,0,0,0-.76-1.89,3.7,3.7,0,0,0-1.54-1.26,5.88,5.88,0,0,0-2.52-.46h-2.59Z"/><path class="e8cc388b-a3c5-46e8-ad89-2d45695a0851" d="M140.88,80.56h2.25V82.9h0a2.71,2.71,0,0,1,.42-1,3.92,3.92,0,0,1,.73-.85,3.51,3.51,0,0,1,1-.62,2.57,2.57,0,0,1,1.08-.24,3.73,3.73,0,0,1,.58,0l.32,0v2.58l-.51-.09-.52,0a2.53,2.53,0,0,0-1.15.27,2.71,2.71,0,0,0-.94.79,4.26,4.26,0,0,0-.63,1.3,6.28,6.28,0,0,0-.23,1.77v5.75h-2.4Z"/><path class="e8cc388b-a3c5-46e8-ad89-2d45695a0851" d="M159.45,92.64h-2.37V91h0a3.48,3.48,0,0,1-1.31,1.46,3.31,3.31,0,0,1-1.79.55,3.75,3.75,0,0,1-3.1-1.18,5.56,5.56,0,0,1-1-3.56V80.56h2.4V88a3.48,3.48,0,0,0,.55,2.24,1.89,1.89,0,0,0,1.54.66,2.8,2.8,0,0,0,1.26-.26,2.21,2.21,0,0,0,.82-.69,2.91,2.91,0,0,0,.46-1,6,6,0,0,0,.13-1.31v-7h2.41Z"/><path class="e8cc388b-a3c5-46e8-ad89-2d45695a0851" d="M163.62,76H166v2.52h-2.4Zm0,4.6H166V92.64h-2.4Z"/><path class="e8cc388b-a3c5-46e8-ad89-2d45695a0851" d="M180.48,92.64H178.2V91h0a3,3,0,0,1-1.41,1.5,4.31,4.31,0,0,1-2,.46,4.85,4.85,0,0,1-2.25-.5A4.66,4.66,0,0,1,171,91.1a6.4,6.4,0,0,1-.95-2,9.88,9.88,0,0,1-.31-2.54,8.86,8.86,0,0,1,.4-2.83,5.89,5.89,0,0,1,1.06-2,4.2,4.2,0,0,1,1.52-1.13,4.46,4.46,0,0,1,1.74-.37,5.23,5.23,0,0,1,1,.11,4,4,0,0,1,1,.34A3.48,3.48,0,0,1,178,82.13h0V76h2.4Zm-8.39-5.91a6.51,6.51,0,0,0,.18,1.52,4.29,4.29,0,0,0,.55,1.33,2.91,2.91,0,0,0,.94.94,2.56,2.56,0,0,0,1.35.35,2.5,2.5,0,0,0,1.38-.38,2.94,2.94,0,0,0,.94-1,4.52,4.52,0,0,0,.55-1.37,6.64,6.64,0,0,0,.18-1.55,5.27,5.27,0,0,0-.81-3.13,2.57,2.57,0,0,0-2.2-1.12,2.61,2.61,0,0,0-1.43.38,3.14,3.14,0,0,0-.94,1,4.2,4.2,0,0,0-.53,1.4A7.75,7.75,0,0,0,172.09,86.73Z"/><path class="e8cc388b-a3c5-46e8-ad89-2d45695a0851" d="M191,76H203.2v2.52h-4.78V92.64h-2.64V78.48H191Z"/><path class="e8cc388b-a3c5-46e8-ad89-2d45695a0851" d="M205.73,87.29a5.13,5.13,0,0,0,.18,1.36,3.53,3.53,0,0,0,.54,1.14,2.6,2.6,0,0,0,.9.78,2.7,2.7,0,0,0,1.31.3,2.67,2.67,0,0,0,1.7-.51,3.06,3.06,0,0,0,1-1.5h2.27a5.16,5.16,0,0,1-.65,1.75,4.87,4.87,0,0,1-1.12,1.3,4.59,4.59,0,0,1-1.46.79,5.64,5.64,0,0,1-4-.2,4.66,4.66,0,0,1-1.67-1.31,5.63,5.63,0,0,1-1-2,8.64,8.64,0,0,1-.35-2.57,7.88,7.88,0,0,1,.37-2.44,6.21,6.21,0,0,1,1.05-2,5.11,5.11,0,0,1,1.65-1.39,4.67,4.67,0,0,1,2.2-.52,4.46,4.46,0,0,1,2.3.6,5.14,5.14,0,0,1,1.7,1.58,6.55,6.55,0,0,1,1,2.25,7.71,7.71,0,0,1,.16,2.63Zm5.61-1.75a4.56,4.56,0,0,0-.25-1.22,3.25,3.25,0,0,0-.54-1,2.87,2.87,0,0,0-.85-.7,2.27,2.27,0,0,0-1.1-.27,2.59,2.59,0,0,0-2,.92,3.64,3.64,0,0,0-.59,1,3.71,3.71,0,0,0-.24,1.26Z"/><path class="e8cc388b-a3c5-46e8-ad89-2d45695a0851" d="M224.51,84.6a2.61,2.61,0,0,0-.81-1.69,2.48,2.48,0,0,0-1.68-.57,3.32,3.32,0,0,0-1,.17,2.4,2.4,0,0,0-1,.66,3.87,3.87,0,0,0-.74,1.33,7.18,7.18,0,0,0-.29,2.23,7,7,0,0,0,.16,1.5,4.32,4.32,0,0,0,.5,1.33,2.79,2.79,0,0,0,.9.94,2.49,2.49,0,0,0,3.07-.36,3.54,3.54,0,0,0,.85-2h2.4a6.07,6.07,0,0,1-1.61,3.61A4.64,4.64,0,0,1,221.92,93a5.09,5.09,0,0,1-2.27-.48A4.8,4.8,0,0,1,218,91.18a5.86,5.86,0,0,1-1-2,8.59,8.59,0,0,1-.34-2.48,9.58,9.58,0,0,1,.33-2.55,6.12,6.12,0,0,1,1-2.06,4.57,4.57,0,0,1,1.67-1.38,5.12,5.12,0,0,1,2.35-.51,5.94,5.94,0,0,1,1.8.27,4.54,4.54,0,0,1,1.52.81,4.41,4.41,0,0,1,1.09,1.35,5,5,0,0,1,.5,1.94Z"/><path class="e8cc388b-a3c5-46e8-ad89-2d45695a0851" d="M230.45,76h2.41v6.19h0a3.72,3.72,0,0,1,1.31-1.37,3.68,3.68,0,0,1,1.95-.55,3.86,3.86,0,0,1,2.83,1,4.19,4.19,0,0,1,1,3.09v8.29h-2.4V85.05a3.54,3.54,0,0,0-.55-2.07,1.88,1.88,0,0,0-1.58-.64,2.47,2.47,0,0,0-1.1.24,2.55,2.55,0,0,0-.82.68,3.27,3.27,0,0,0-.52,1,3.88,3.88,0,0,0-.19,1.24v7.12h-2.41Z"/><path class="e8cc388b-a3c5-46e8-ad89-2d45695a0851" d="M244.13,80.56h2.28v1.78l0,0a4.26,4.26,0,0,1,1.43-1.57,3.57,3.57,0,0,1,2-.58,3.86,3.86,0,0,1,2.83,1,4.19,4.19,0,0,1,1,3.09v8.29h-2.4V85.05a3.54,3.54,0,0,0-.55-2.07,1.88,1.88,0,0,0-1.58-.64,2.47,2.47,0,0,0-1.1.24,2.55,2.55,0,0,0-.82.68,3.52,3.52,0,0,0-.53,1,4.18,4.18,0,0,0-.19,1.24v7.12h-2.4Z"/><path class="e8cc388b-a3c5-46e8-ad89-2d45695a0851" d="M262.81,93a5.39,5.39,0,0,1-2.33-.48,4.93,4.93,0,0,1-1.73-1.32,5.88,5.88,0,0,1-1.08-2,8.72,8.72,0,0,1-.37-2.57,8.63,8.63,0,0,1,.37-2.55,5.88,5.88,0,0,1,1.08-2,4.93,4.93,0,0,1,1.73-1.32,5.87,5.87,0,0,1,4.65,0A4.93,4.93,0,0,1,266.86,82a5.88,5.88,0,0,1,1.08,2,8.63,8.63,0,0,1,.37,2.55,8.72,8.72,0,0,1-.37,2.57,5.88,5.88,0,0,1-1.08,2,4.93,4.93,0,0,1-1.73,1.32A5.38,5.38,0,0,1,262.81,93Zm0-2.1a2.56,2.56,0,0,0,1.39-.38,3.13,3.13,0,0,0,1-1,4.52,4.52,0,0,0,.55-1.37,6.64,6.64,0,0,0,.18-1.55,6.75,6.75,0,0,0-.18-1.54,4.42,4.42,0,0,0-.55-1.37,3.21,3.21,0,0,0-1-1,2.81,2.81,0,0,0-2.79,0,3.21,3.21,0,0,0-1,1,4.42,4.42,0,0,0-.55,1.37,6.75,6.75,0,0,0-.18,1.54,6.64,6.64,0,0,0,.18,1.55,4.52,4.52,0,0,0,.55,1.37,3.13,3.13,0,0,0,1,1A2.57,2.57,0,0,0,262.81,90.87Z"/><path class="e8cc388b-a3c5-46e8-ad89-2d45695a0851" d="M272,76h2.41V92.64H272Z"/><path class="e8cc388b-a3c5-46e8-ad89-2d45695a0851" d="M283.54,93a5.38,5.38,0,0,1-2.32-.48,4.93,4.93,0,0,1-1.73-1.32,5.88,5.88,0,0,1-1.08-2,8.72,8.72,0,0,1-.37-2.57,8.63,8.63,0,0,1,.37-2.55,5.88,5.88,0,0,1,1.08-2,4.93,4.93,0,0,1,1.73-1.32,5.87,5.87,0,0,1,4.65,0A4.93,4.93,0,0,1,287.6,82a5.88,5.88,0,0,1,1.08,2,8.63,8.63,0,0,1,.37,2.55,8.72,8.72,0,0,1-.37,2.57,5.88,5.88,0,0,1-1.08,2,4.93,4.93,0,0,1-1.73,1.32A5.39,5.39,0,0,1,283.54,93Zm0-2.1a2.57,2.57,0,0,0,1.4-.38,3.13,3.13,0,0,0,1-1,4.52,4.52,0,0,0,.55-1.37,6.64,6.64,0,0,0,.18-1.55,6.75,6.75,0,0,0-.18-1.54,4.42,4.42,0,0,0-.55-1.37,3.21,3.21,0,0,0-1-1,2.81,2.81,0,0,0-2.79,0,3.21,3.21,0,0,0-1,1,4.19,4.19,0,0,0-.55,1.37,6.75,6.75,0,0,0-.18,1.54,6.64,6.64,0,0,0,.18,1.55,4.28,4.28,0,0,0,.55,1.37,3.13,3.13,0,0,0,1,1A2.56,2.56,0,0,0,283.54,90.87Z"/><path class="e8cc388b-a3c5-46e8-ad89-2d45695a0851" d="M302.7,92a4.79,4.79,0,0,1-5.35,5.42,7.88,7.88,0,0,1-1.66-.18,4.62,4.62,0,0,1-1.51-.64A3.75,3.75,0,0,1,293,95.45a3.89,3.89,0,0,1-.55-1.78h2.4a2.23,2.23,0,0,0,.36.91,1.84,1.84,0,0,0,.6.55,2.19,2.19,0,0,0,.77.26,6.33,6.33,0,0,0,.89.06,2.65,2.65,0,0,0,2.13-.8,3.44,3.44,0,0,0,.67-2.29V90.52h0a3.89,3.89,0,0,1-1.38,1.56,3.39,3.39,0,0,1-1.89.56,4.5,4.5,0,0,1-2.22-.5,4.27,4.27,0,0,1-1.52-1.38,6,6,0,0,1-.87-2,10.1,10.1,0,0,1-.28-2.45,7.75,7.75,0,0,1,.34-2.32,6,6,0,0,1,1-1.92A4.57,4.57,0,0,1,295,80.73a4.28,4.28,0,0,1,2.07-.5,3.86,3.86,0,0,1,1.9.48,3.14,3.14,0,0,1,1.33,1.51h0V80.56h2.4Zm-5.33-1.47a2.46,2.46,0,0,0,1.36-.36,2.89,2.89,0,0,0,.91-1,4.4,4.4,0,0,0,.5-1.36,7.1,7.1,0,0,0,.16-1.53,6.67,6.67,0,0,0-.17-1.49,4.35,4.35,0,0,0-.51-1.29,2.76,2.76,0,0,0-.91-.89,2.68,2.68,0,0,0-1.34-.32,2.35,2.35,0,0,0-1.35.37,2.83,2.83,0,0,0-.88,1,4.39,4.39,0,0,0-.49,1.36,7.71,7.71,0,0,0-.15,1.5,6.41,6.41,0,0,0,.17,1.46,4.58,4.58,0,0,0,.52,1.28,2.94,2.94,0,0,0,.88.91A2.36,2.36,0,0,0,297.37,90.54Z"/><path class="e8cc388b-a3c5-46e8-ad89-2d45695a0851" d="M305.51,80.56h2.63l2.85,9h0l2.76-9h2.51L312.06,93.3c-.2.54-.39,1.06-.58,1.56a5.86,5.86,0,0,1-.69,1.32,3,3,0,0,1-2.59,1.25,9.22,9.22,0,0,1-1.66-.14V95.05l.57.1a2.62,2.62,0,0,0,.57.06,1.92,1.92,0,0,0,.69-.11,1.2,1.2,0,0,0,.46-.34,2.44,2.44,0,0,0,.3-.53,4.42,4.42,0,0,0,.23-.7l.28-.93Z"/></svg>