<?xml version="1.0" encoding="UTF-8" standalone="no"?>
<!DOCTYPE svg PUBLIC "-//W3C//DTD SVG 1.1//EN" "http://www.w3.org/Graphics/SVG/1.1/DTD/svg11.dtd">
<!-- Generated by Microsoft Visio, SVG Export logo.svg Page-1 -->
<svg xmlns="http://www.w3.org/2000/svg" xmlns:xlink="http://www.w3.org/1999/xlink" xmlns:ev="http://www.w3.org/2001/xml-events"
		xmlns:v="http://schemas.microsoft.com/visio/2003/SVGExtensions/" width="14.7996in" height="1.94958in"
		viewBox="0 0 1065.57 140.37" xml:space="preserve" color-interpolation-filters="sRGB" class="st3">
	<v:documentProperties v:langID="2052" v:metric="true" v:viewMarkup="false"/>

	<style type="text/css">
	<![CDATA[
		.st1 {fill:#69becb;stroke:none;stroke-linecap:butt;stroke-width:1.78478}
		.st2 {fill:#ffffff;stroke:none;stroke-linecap:butt;stroke-width:1.78478}
		.st3 {fill:none;fill-rule:evenodd;font-size:12px;overflow:visible;stroke-linecap:square;stroke-miterlimit:3}
	]]>
	</style>

	<g v:mID="0" v:index="1" v:groupContext="foregroundPage">
		<title>Page-1</title>
		<v:pageProperties v:drawingScale="1" v:pageScale="1" v:drawingUnits="19" v:shadowOffsetX="9" v:shadowOffsetY="-9"/>
		<g id="group25-1" transform="translate(1.78478,-1.78478)" v:mID="25" v:groupContext="group">
			<title>Sheet.25</title>
			<g id="shape1-2" v:mID="1" v:groupContext="shape">
				<title>Sheet.1</title>
				<rect x="0" y="3.56955" width="1062" height="136.8" class="st1"/>
			</g>
			<g id="shape2-4" v:mID="2" v:groupContext="shape" transform="translate(534.066,-2.72408)">
				<title>Sheet.2</title>
				<path d="M142.62 37.91 A41.1927 41.1927 -180 0 0 125.54 19.9 A78.5302 78.5302 -180 0 0 101.34 10.97 A119.33 119.33
							 -180 0 0 84.13 8.64 C79.78 8.37 75.39 8.44 71 8.39 A79.0478 79.0478 -180 0 0 50.46 10.97 A50.1879 50.1879
							 -180 0 0 32.61 19.09 A30.3412 30.3412 -180 0 0 21.1 35.62 C19.61 40.98 18.01 46.33 16.31 51.59 C11.87
							 65.59 7.21 79.62 2.68 93.7 A52.0619 52.0619 -180 0 0 0 116.08 A23.0236 23.0236 -180 0 0 6.25 129.59
							 A28.8955 28.8955 -180 0 0 18.15 136.62 A69.6063 69.6063 -180 0 0 37.07 139.78 C43.57 140.1 50.06 140.17
							 56.54 140.37 L68.21 140.01 A117.26 117.26 -180 0 0 84.79 138.35 A77.7806 77.7806 -180 0 0 101.48 133.71
							 A57.1129 57.1129 -180 0 0 122.26 119.27 A79.601 79.601 -180 0 0 135.8 98.02 A131.163 131.163 -180 0
							 0 143.21 77.01 A114.85 114.85 -180 0 0 145.89 64.78 A78.5302 78.5302 -180 0 0 146.37 54.54 A37.4803
							 37.4803 -180 0 0 142.62 37.91 ZM124.04 51.72 A2.90919 2.90919 0 0 1 121.79 54.02 A9.20945 9.20945 0
							 0 1 119.81 54.22 L92.26 54.7 L71.64 55.08 A10.4588 10.4588 -180 0 0 69.39 55.31 A2.98058 2.98058 -180
							 0 0 67.96 56.15 A1.03517 1.03517 -180 0 0 68.68 57.93 A9.26299 9.26299 -180 0 0 69.68 57.93 C79.07 57.84
							 88.45 57.7 97.84 57.7 C103.02 57.7 108.19 57.93 113.35 58.13 A15.3848 15.3848 0 0 1 117.05 58.84 A4.97953
							 4.97953 0 0 1 120.62 65.53 A13.7785 13.7785 0 0 1 109.1 76.24 A60.3255 60.3255 0 0 1 99.63 77.08 C88.24
							 77.26 76.85 77.28 65.48 77.35 C64.25 77.35 63.22 77.88 63.34 78.54 C63.56 79.65 64.56 79.56 65.34 79.58
							 L86.04 79.72 C92.9 79.87 99.77 79.99 106.64 80.2 A17.8478 17.8478 0 0 1 110.64 80.81 A3.85512 3.85512
							 0 0 1 113.74 85.42 A11.0121 11.0121 0 0 1 106.39 95.3 A29.3953 29.3953 0 0 1 95.56 97.46 C83.72 97.73
							 71.87 97.86 60.04 98.03 C59.63 98.03 59.24 98.03 58.84 98.03 C57.81 98.16 57.06 98.77 57.2 99.44 A1.51706
							 1.51706 -180 0 0 58.88 100.71 C60.2 100.71 61.52 100.85 62.86 100.85 C68.66 100.85 74.46 100.71 80.28
							 100.85 C84.42 100.85 88.56 101.16 92.77 101.39 A6.51444 6.51444 0 0 1 98.29 105.57 A4.06929 4.06929
							 0 0 1 97.38 109.14 A16.1879 16.1879 0 0 1 90.13 114.38 A49.5454 49.5454 0 0 1 78.16 117.4 A127.844 127.844
							 0 0 1 55.85 118.58 A48.6887 48.6887 0 0 1 36.89 114.49 A14.0105 14.0105 0 0 1 28.43 103.78 A23.9339
							 23.9339 0 0 1 28.65 94.09 C30.14 87.93 31.76 81.81 33.48 75.72 C35.59 68.39 37.82 61.04 40.16 53.81
							 A56.7916 56.7916 0 0 1 45.17 42.37 A22.9879 22.9879 0 0 1 59.09 31.66 A65.7869 65.7869 0 0 1 73.59 29.02
							 A79.7617 79.7617 0 0 1 88.19 29.25 C97.27 30.27 106.03 32.34 113.92 37.3 A24.8798 24.8798 0 0 1 123.27
							 47.03 A6.92493 6.92493 0 0 1 124.04 51.72 Z" class="st2"/>
			</g>
			<g id="group23-6" transform="translate(712.401,-1.06423)" v:mID="23" v:groupContext="group">
				<title>Sheet.23</title>
				<g id="shape8-7" v:mID="8" v:groupContext="shape" transform="translate(1.39888E-14,-8.53123)">
					<title>Sheet.8</title>
					<path d="M0 110.65 L11.12 110.65 A11.6724 11.6724 0 0 1 16.47 111.81 A10.1018 10.1018 0 0 1 20.15 115.01 A14.1354
								 14.1354 0 0 1 22.27 119.74 A24.5228 24.5228 0 0 1 22.27 131.34 A13.9748 13.9748 0 0 1 20.15 136.07
								 A10.1018 10.1018 0 0 1 16.47 139.21 A11.6724 11.6724 0 0 1 11.12 140.37 L0 140.37 L0 110.65 ZM4.69
								 136.18 L9.32 136.18 A10.4945 10.4945 -180 0 0 13.81 135.35 A6.60367 6.60367 -180 0 0 16.56 133.11
								 A8.60262 8.60262 -180 0 0 17.92 129.73 A24.8262 24.8262 -180 0 0 17.92 121.34 A8.60262 8.60262 -180
								 0 0 16.56 117.97 A6.60367 6.60367 -180 0 0 13.81 115.72 A10.4945 10.4945 -180 0 0 9.32 114.9 L4.69
								 114.9 L4.69 136.18 Z" class="st2"/>
				</g>
				<g id="shape9-9" v:mID="9" v:groupContext="shape" transform="translate(29.3774,-8.69186)">
					<title>Sheet.9</title>
					<path d="M0 118.95 L4.02 118.95 L4.02 123.13 A4.83675 4.83675 0 0 1 4.77 121.34 A6.99633 6.99633 0 0 1 6.07 119.83
								 A6.26457 6.26457 0 0 1 7.85 118.72 A4.58688 4.58688 0 0 1 9.78 118.29 A6.65722 6.65722 0 0 1 10.82
								 118.29 L11.39 118.29 L11.39 122.9 L10.48 122.74 L9.55 122.74 A4.51549 4.51549 -180 0 0 7.5 123.22
								 A4.83675 4.83675 -180 0 0 5.82 124.63 A7.60315 7.60315 -180 0 0 4.69 126.95 A11.2084 11.2084 -180
								 0 0 4.28 130.11 L4.28 140.37 L0 140.37 L0 118.95 Z" class="st2"/>
				</g>
				<g id="shape10-11" v:mID="10" v:groupContext="shape" transform="translate(45.4404,-7.88871)">
					<title>Sheet.10</title>
					<path d="M17.08 139.71 L12.85 139.71 L12.85 136.78 A6.21102 6.21102 0 0 1 10.51 139.39 A5.90761 5.90761 0 0 1
								 7.32 140.37 A6.69291 6.69291 0 0 1 1.78 138.26 A9.92336 9.92336 0 0 1 0 131.91 L0 118.15 L4.28 118.15
								 L4.28 131.43 A6.21102 6.21102 -180 0 0 5.27 135.43 A3.37323 3.37323 -180 0 0 8.01 136.6 A4.99738
								 4.99738 -180 0 0 10.26 136.14 A3.94436 3.94436 -180 0 0 11.73 134.91 A5.1937 5.1937 -180 0 0 12.55
								 133.12 A10.7087 10.7087 -180 0 0 12.78 130.79 L12.78 118.29 L17.08 118.29 L17.08 139.71 Z"
							class="st2"/>
				</g>
				<g id="shape11-13" v:mID="11" v:groupContext="shape" transform="translate(69.9276,-8.54908)">
					<title>Sheet.11</title>
					<path d="M0.04 110.67 L4.28 110.67 L4.28 115.17 L0 115.17 L0.04 110.67 ZM0.04 118.88 L4.28 118.88 L4.28 140.37
								 L0 140.37 L0.04 118.88 Z" class="st2"/>
				</g>
				<g id="shape12-15" v:mID="12" v:groupContext="shape" transform="translate(80.8861,-7.97795)">
					<title>Sheet.12</title>
					<path d="M19.17 139.8 L15.1 139.8 L15.1 136.87 A5.35433 5.35433 0 0 1 12.58 139.55 A7.69239 7.69239 0 0 1 9.01
								 140.37 A8.65617 8.65617 0 0 1 5 139.48 A8.31706 8.31706 0 0 1 2.25 137.05 A11.4226 11.4226 0 0 1
								 0.55 133.48 A17.6336 17.6336 0 0 1 0 128.95 A15.8131 15.8131 0 0 1 0.71 123.9 A10.5123 10.5123 0
								 0 1 2.61 120.33 A7.49606 7.49606 0 0 1 5.32 118.31 A7.9601 7.9601 0 0 1 8.42 117.65 A9.33438 9.33438
								 0 0 1 10.21 117.85 A7.13911 7.13911 0 0 1 11.99 118.45 A6.21102 6.21102 0 0 1 14.74 121.04 L14.74
								 110.1 L19.03 110.1 L19.17 139.8 ZM4.19 129.25 A11.6189 11.6189 -180 0 0 4.52 131.96 A7.65669 7.65669
								 -180 0 0 5.5 134.34 A5.1937 5.1937 -180 0 0 7.17 136.01 A4.56903 4.56903 -180 0 0 9.58 136.64 A4.46194
								 4.46194 -180 0 0 12.05 135.96 A5.24724 5.24724 -180 0 0 13.72 134.18 A8.06719 8.06719 -180 0 0 14.71
								 131.73 A11.8509 11.8509 -180 0 0 15.03 128.96 A9.40577 9.40577 -180 0 0 13.58 123.38 A4.58688 4.58688
								 -180 0 0 9.66 121.38 A4.65827 4.65827 -180 0 0 7.1 122.06 A5.6042 5.6042 -180 0 0 5.43 123.84 A7.49606
								 7.49606 -180 0 0 4.48 126.34 A13.832 13.832 -180 0 0 4.19 129.25 Z" class="st2"/>
				</g>
				<g id="shape13-17" v:mID="13" v:groupContext="shape" transform="translate(118.83,-8.54908)">
					<title>Sheet.13</title>
					<path d="M0 110.67 L21.77 110.67 L21.77 115.17 L13.24 115.17 L13.24 140.37 L8.53 140.37 L8.53 115.1 L0 115.1
								 L0 110.67 Z" class="st2"/>
				</g>
				<g id="shape14-19" v:mID="14" v:groupContext="shape" transform="translate(140.926,-7.96544)">
					<title>Sheet.14</title>
					<path d="M4.19 130.24 A9.15591 9.15591 -180 0 0 4.52 132.66 A6.30026 6.30026 -180 0 0 5.48 134.7 A4.64042 4.64042
								 -180 0 0 7.09 136.09 A4.8189 4.8189 -180 0 0 9.42 136.63 A4.76535 4.76535 -180 0 0 12.46 135.72
								 A5.46142 5.46142 -180 0 0 14.24 133.04 L18.29 133.04 A9.20945 9.20945 0 0 1 17.13 136.16 A8.69186
								 8.69186 0 0 1 15.13 138.48 A8.19213 8.19213 0 0 1 12.53 139.89 A10.0661 10.0661 0 0 1 5.39 139.54
								 A8.31706 8.31706 0 0 1 2.41 137.2 A10.0483 10.0483 0 0 1 0.62 133.63 A15.4205 15.4205 0 0 1 -0 129.04
								 A14.064 14.064 0 0 1 0.66 124.69 A11.0835 11.0835 0 0 1 2.53 121.12 A9.12021 9.12021 0 0 1 5.48
								 118.64 A8.33491 8.33491 0 0 1 9.41 117.71 A7.9601 7.9601 0 0 1 13.51 118.78 A9.17375 9.17375 0 0
								 1 16.54 121.6 A11.6903 11.6903 0 0 1 18.33 125.61 A13.7606 13.7606 0 0 1 18.62 130.31 L4.19 130.24
								 ZM14.21 127.11 A8.13858 8.13858 -180 0 0 13.76 124.94 A5.80052 5.80052 -180 0 0 12.8 123.15 A5.12231
								 5.12231 -180 0 0 11.28 121.9 A4.05144 4.05144 -180 0 0 9.32 121.42 A4.62257 4.62257 -180 0 0 5.75
								 123.06 A6.49659 6.49659 -180 0 0 4.69 124.85 A6.62152 6.62152 -180 0 0 4.27 127.1 L14.21 127.11
								 Z" class="st2"/>
				</g>
				<g id="shape15-21" v:mID="15" v:groupContext="shape" transform="translate(164.628,-7.90656)">
					<title>Sheet.15</title>
					<path d="M14.01 125.38 A4.65827 4.65827 -180 0 0 12.56 122.36 A4.42625 4.42625 -180 0 0 9.57 121.34 A5.92546
								 5.92546 -180 0 0 7.78 121.65 A4.28346 4.28346 -180 0 0 6 122.83 A6.90709 6.90709 -180 0 0 4.68 125.2
								 A12.8147 12.8147 -180 0 0 4.16 129.18 A12.4934 12.4934 -180 0 0 4.44 131.86 A7.71024 7.71024 -180
								 0 0 5.34 134.23 A4.97953 4.97953 -180 0 0 6.94 135.91 A4.44409 4.44409 -180 0 0 12.42 135.27 A6.31811
								 6.31811 -180 0 0 13.94 131.7 L18.22 131.7 A10.8336 10.8336 0 0 1 15.35 138.14 A8.28136 8.28136 0
								 0 1 9.39 140.37 A9.08451 9.08451 0 0 1 5.34 139.51 A8.56693 8.56693 0 0 1 2.39 137.12 A10.4588 10.4588
								 0 0 1 0.61 133.55 A15.3312 15.3312 0 0 1 0 129.13 A17.0982 17.0982 0 0 1 0.59 124.57 A10.9228 10.9228
								 0 0 1 2.37 120.9 A8.15643 8.15643 0 0 1 5.35 118.43 A9.13806 9.13806 0 0 1 9.55 117.52 A10.6016
								 10.6016 0 0 1 12.76 118.01 A8.10289 8.10289 0 0 1 15.47 119.45 A7.87087 7.87087 0 0 1 17.42 121.86
								 A8.92388 8.92388 0 0 1 18.31 125.32 L14.01 125.38 Z" class="st2"/>
				</g>
				<g id="shape16-23" v:mID="16" v:groupContext="shape" transform="translate(189.115,-8.53123)">
					<title>Sheet.16</title>
					<path d="M0.12 110.65 L4.43 110.65 L4.43 121.7 A6.63937 6.63937 0 0 1 6.76 119.26 A6.56798 6.56798 0 0 1 10.24
								 118.27 A6.88924 6.88924 0 0 1 15.3 120.06 A7.47822 7.47822 0 0 1 17.08 125.57 L17.08 140.37 L12.8
								 140.37 L12.8 126.81 A6.31811 6.31811 -180 0 0 11.82 123.11 A3.35538 3.35538 -180 0 0 9 121.97 A4.4084
								 4.4084 -180 0 0 7.03 122.4 A4.55118 4.55118 -180 0 0 5.57 123.61 A5.83622 5.83622 -180 0 0 4.64
								 125.4 A6.92493 6.92493 -180 0 0 4.3 127.61 L4.3 140.32 L0 140.32 L0.12 110.65 Z" class="st2"/>
				</g>
				<g id="shape17-25" v:mID="17" v:groupContext="shape" transform="translate(213.602,-8.58478)">
					<title>Sheet.17</title>
					<path d="M0.05 118.85 L4.12 118.85 L4.12 122.02 A7.60315 7.60315 0 0 1 6.68 119.22 A6.37165 6.37165 0 0 1 10.24
								 118.18 A6.88924 6.88924 0 0 1 15.3 119.97 A7.47822 7.47822 0 0 1 17.08 125.48 L17.08 140.28 L12.8
								 140.28 L12.8 126.86 A6.31811 6.31811 -180 0 0 11.82 123.16 A3.35538 3.35538 -180 0 0 9 122.02 A4.4084
								 4.4084 -180 0 0 7.03 122.45 A4.55118 4.55118 -180 0 0 5.57 123.66 A6.28241 6.28241 -180 0 0 4.62
								 125.45 A7.46037 7.46037 -180 0 0 4.28 127.66 L4.28 140.37 L0 140.37 L0.05 118.85 Z" class="st2"/>
				</g>
				<g id="shape18-27" v:mID="18" v:groupContext="shape" transform="translate(237.161,-7.90656)">
					<title>Sheet.18</title>
					<path d="M9.83 140.37 A9.61995 9.61995 0 0 1 5.68 139.51 A8.79895 8.79895 0 0 1 2.59 137.16 A10.4945 10.4945
								 0 0 1 0.66 133.59 A15.5633 15.5633 0 0 1 -0 129 A15.4026 15.4026 0 0 1 0.66 124.45 A10.4945 10.4945
								 0 0 1 2.59 120.88 A8.79895 8.79895 0 0 1 5.68 118.52 A10.4766 10.4766 0 0 1 13.97 118.52 A8.79895
								 8.79895 0 0 1 17.06 120.74 A10.4945 10.4945 0 0 1 18.99 124.31 A15.4026 15.4026 0 0 1 19.65 128.86
								 A15.5633 15.5633 0 0 1 18.99 133.44 A10.4945 10.4945 0 0 1 17.06 137.01 A8.79895 8.79895 0 0 1 13.97
								 139.37 A9.6021 9.6021 0 0 1 9.83 140.37 ZM9.83 136.62 A4.56903 4.56903 -180 0 0 12.31 135.94 A5.58635
								 5.58635 -180 0 0 14.1 134.16 A8.06719 8.06719 -180 0 0 15.08 131.71 A11.8509 11.8509 -180 0 0 15.4
								 128.95 A12.0472 12.0472 -180 0 0 15.08 126.2 A7.88871 7.88871 -180 0 0 14.1 123.75 A5.72913 5.72913
								 -180 0 0 12.31 121.97 A5.01522 5.01522 -180 0 0 7.34 121.97 A5.72913 5.72913 -180 0 0 5.55 123.75
								 A7.88871 7.88871 -180 0 0 4.57 126.2 A12.0472 12.0472 -180 0 0 4.25 128.95 A11.8509 11.8509 -180
								 0 0 4.57 131.71 A8.06719 8.06719 -180 0 0 5.55 134.16 A5.58635 5.58635 -180 0 0 7.34 135.94 A4.58688
								 4.58688 -180 0 0 9.83 136.57 L9.83 136.62 Z" class="st2"/>
				</g>
				<g id="shape19-29" v:mID="19" v:groupContext="shape" transform="translate(263.397,-8.54908)">
					<title>Sheet.19</title>
					<rect x="0" y="110.671" width="4.30131" height="29.6987" class="st2"/>
				</g>
				<g id="shape20-31" v:mID="20" v:groupContext="shape" transform="translate(274.177,-7.90656)">
					<title>Sheet.20</title>
					<path d="M9.82 140.37 A9.6021 9.6021 0 0 1 5.68 139.51 A8.79895 8.79895 0 0 1 2.59 137.16 A10.4945 10.4945 0
								 0 1 0.66 133.59 A15.5633 15.5633 0 0 1 -0 129 A15.4026 15.4026 0 0 1 0.66 124.45 A10.4945 10.4945
								 0 0 1 2.59 120.88 A8.79895 8.79895 0 0 1 5.68 118.52 A10.4766 10.4766 0 0 1 13.97 118.52 A8.79895
								 8.79895 0 0 1 17.06 120.74 A10.4945 10.4945 0 0 1 18.99 124.31 A15.4026 15.4026 0 0 1 19.65 128.86
								 A15.5633 15.5633 0 0 1 18.99 133.44 A10.4945 10.4945 0 0 1 17.06 137.01 A8.79895 8.79895 0 0 1 13.97
								 139.37 A9.61995 9.61995 0 0 1 9.82 140.37 ZM9.82 136.62 A4.58688 4.58688 -180 0 0 12.31 135.94 A5.58635
								 5.58635 -180 0 0 14.1 134.16 A8.06719 8.06719 -180 0 0 15.08 131.71 A11.8509 11.8509 -180 0 0 15.4
								 128.95 A12.0472 12.0472 -180 0 0 15.08 126.2 A7.88871 7.88871 -180 0 0 14.1 123.75 A5.72913 5.72913
								 -180 0 0 12.31 121.97 A5.01522 5.01522 -180 0 0 7.34 121.97 A5.72913 5.72913 -180 0 0 5.55 123.75
								 A7.47822 7.47822 -180 0 0 4.57 126.2 A12.0472 12.0472 -180 0 0 4.25 128.95 A11.8509 11.8509 -180
								 0 0 4.57 131.71 A7.63885 7.63885 -180 0 0 5.55 134.16 A5.58635 5.58635 -180 0 0 7.34 135.94 A4.56903
								 4.56903 -180 0 0 9.82 136.57 L9.82 136.62 Z" class="st2"/>
				</g>
				<g id="shape21-33" v:mID="21" v:groupContext="shape" transform="translate(299.289,-0.0178478)">
					<title>Sheet.21</title>
					<path d="M18.9 130.7 A8.54908 8.54908 0 0 1 9.35 140.37 A14.064 14.064 0 0 1 6.39 140.05 A8.24567 8.24567 0 0
								 1 3.69 138.91 A6.69291 6.69291 0 0 1 1.59 136.85 A6.94278 6.94278 0 0 1 0.61 133.68 L4.89 133.68
								 A3.98005 3.98005 -180 0 0 5.53 135.3 A3.28399 3.28399 -180 0 0 6.6 136.28 A3.90866 3.90866 -180
								 0 0 7.98 136.75 A11.2976 11.2976 -180 0 0 9.57 136.85 A4.72966 4.72966 -180 0 0 13.37 135.43 A6.13963
								 6.13963 -180 0 0 14.56 131.34 L14.56 128.05 A6.94278 6.94278 0 0 1 12.1 130.84 A6.05039 6.05039
								 0 0 1 8.73 131.84 A8.0315 8.0315 0 0 1 4.77 130.95 A7.621 7.621 0 0 1 2.05 128.48 A10.7087 10.7087
								 0 0 1 0.5 124.91 A18.0262 18.0262 0 0 1 0 120.54 A13.832 13.832 0 0 1 0.61 116.4 A10.7087 10.7087
								 0 0 1 2.39 112.97 A8.15643 8.15643 0 0 1 5.16 110.58 A7.63885 7.63885 0 0 1 8.85 109.69 A6.88924
								 6.88924 0 0 1 12.24 110.55 A5.6042 5.6042 0 0 1 14.62 113.24 L14.62 110.28 L18.9 110.28 L18.9 130.7
								 ZM9.39 128.07 A4.39055 4.39055 -180 0 0 11.82 127.43 A5.15801 5.15801 -180 0 0 13.44 125.65 A7.85302
								 7.85302 -180 0 0 14.33 123.22 A12.6719 12.6719 -180 0 0 14.62 120.49 A11.9045 11.9045 -180 0 0 14.31
								 117.83 A7.76378 7.76378 -180 0 0 13.4 115.53 A4.92598 4.92598 -180 0 0 11.78 113.94 A4.7832 4.7832
								 -180 0 0 9.39 113.37 A4.19423 4.19423 -180 0 0 6.98 114.03 A5.05092 5.05092 -180 0 0 5.41 115.81
								 A7.83517 7.83517 -180 0 0 4.53 118.24 A13.7606 13.7606 -180 0 0 4.27 120.92 A11.4404 11.4404 -180
								 0 0 4.57 123.52 A8.17428 8.17428 -180 0 0 5.5 125.81 A5.24724 5.24724 -180 0 0 7.07 127.43 A4.21207
								 4.21207 -180 0 0 9.39 128.09 L9.39 128.07 Z" class="st2"/>
				</g>
				<g id="shape22-35" v:mID="22" v:groupContext="shape" transform="translate(323.205,-2.84217E-14)">
					<title>Sheet.22</title>
					<path d="M0 110.26 L4.69 110.26 L9.78 126.32 L14.71 110.26 L19.19 110.26 L11.69 133 C11.33 133.96 10.99 134.89
								 10.66 135.78 A10.4588 10.4588 0 0 1 9.42 138.14 A5.35433 5.35433 0 0 1 4.8 140.37 A16.4556 16.4556
								 0 0 1 1.84 140.12 L1.84 136.12 L2.86 136.3 A4.67612 4.67612 -180 0 0 3.87 136.41 A3.42677 3.42677
								 -180 0 0 5.1 136.21 A2.14173 2.14173 -180 0 0 5.93 135.6 A4.35486 4.35486 -180 0 0 6.46 134.66 A7.88871
								 7.88871 -180 0 0 6.87 133.41 L7.37 131.75 L0 110.26 Z" class="st2"/>
				</g>
			</g>
			<g id="group24-37" transform="translate(708.546,-60.4259)" v:mID="24" v:groupContext="group">
				<title>Sheet.24</title>
				<g id="shape3-38" v:mID="3" v:groupContext="shape" transform="translate(-1.59872E-14,-0.142782)">
					<title>Sheet.3</title>
					<path d="M20.95 92.72 A114.101 114.101 0 0 1 15.08 102.55 L15.08 140.37 L10.24 140.37 L10.24 109.26 A106.962
								 106.962 0 0 1 3.11 117.45 A40.2646 40.2646 -180 0 0 0 112.72 A82.5995 82.5995 -180 0 0 16.4 91.09
								 L20.95 92.72 ZM19.72 77.74 A114.529 114.529 0 0 1 2.89 95.43 A28.0745 28.0745 -180 0 0 0.27 91.25
								 A80.315 80.315 -180 0 0 14.9 75.83 L19.72 77.74 ZM17.38 135.5 A41.6924 41.6924 -180 0 0 23.68 122.36
								 L27.77 123.91 C26.29 128.36 24.31 134.02 21.49 137.69 L17.38 135.5 ZM65.32 117.4 L20.15 117.4 L20.15
								 113.08 L65.32 113.08 L65.32 117.4 ZM38.37 91.02 C38.59 89.54 38.87 87.77 39.16 85.93 L20.77 85.93
								 L20.77 81.61 L39.73 81.61 C40.01 79.49 40.23 77.37 40.35 75.6 L45.71 75.89 C45.44 77.67 45.15 79.7
								 44.8 81.61 L64.81 81.61 L64.81 85.93 L44.24 85.93 L43.26 91.02 L62.34 91.02 L62.34 108.48 L23.88
								 108.48 L23.88 91.02 L38.37 91.02 ZM35.23 94.98 L28.24 94.98 L28.24 104.51 L35.23 104.51 L35.23 94.98
								 ZM47.89 135.28 C50.15 135.28 50.51 134.5 50.79 128.55 A11.0478 11.0478 -180 0 0 54.95 130.2 C54.47
								 137.6 53.04 139.37 48.39 139.37 L38 139.37 C32.13 139.37 30.57 138.1 30.57 133.44 L30.57 122.84
								 L35.23 122.84 L35.23 133.44 C35.23 134.93 35.66 135.23 38.41 135.23 L47.89 135.28 ZM42.87 128.29
								 A78.5302 78.5302 -180 0 0 37.86 119.24 L41.75 117.81 C43.53 120.58 45.83 124.32 46.98 126.52 L42.87
								 128.29 ZM46.44 94.98 L39.09 94.98 L39.09 104.51 L46.44 104.51 L46.44 94.98 ZM50.33 104.51 L57.9
								 104.51 L57.9 94.98 L50.33 94.98 L50.33 104.51 ZM58.18 121.61 A78.9585 78.9585 0 0 1 65.32 135.12
								 L61.08 137.03 A70.1239 70.1239 -180 0 0 54.15 123.24 L58.18 121.61 Z" class="st2"/>
				</g>
				<g id="shape4-40" v:mID="4" v:groupContext="shape" transform="translate(71.6766,-0.0713911)">
					<title>Sheet.4</title>
					<path d="M9.12 92.64 C7.34 93.91 5.3 95.13 3.27 96.32 A17.8478 17.8478 -180 0 0 -0 92.75 A54.4535 54.4535 -180
								 0 0 20.01 75.49 L25.17 76.56 A39.8362 39.8362 0 0 1 22.49 80.24 L40.01 80.24 L40.94 79.95 L44.33
								 82.01 A30.5197 30.5197 0 0 1 39.75 88.02 L55.81 88.02 L55.81 106.57 L9.12 106.57 L9.12 92.64 ZM62.29
								 109.62 L62.29 113.37 L2.41 113.37 L2.41 109.62 L62.29 109.62 ZM11.24 116.4 L53.74 116.4 L53.74 140.14
								 L48.39 140.14 L48.39 137.89 L16.4 137.89 L16.4 140.37 L11.24 140.37 L11.24 116.4 ZM14.01 95.61 L29.91
								 95.61 L29.91 91.52 L14.01 91.52 L14.01 95.61 ZM14.01 103.03 L29.91 103.03 L29.91 98.94 L14.01 98.94
								 L14.01 103.03 ZM19.36 83.88 A51.7585 51.7585 0 0 1 15.12 87.99 L33.43 87.99 A25.8793 25.8793 -180
								 0 0 37.46 83.88 L19.36 83.88 ZM16.46 120.29 L16.46 125.23 L48.49 125.23 L48.49 120.29 L16.46 120.29
								 ZM48.49 134.07 L48.49 128.71 L16.4 128.71 L16.4 134.07 L48.49 134.07 ZM50.81 91.52 L34.75 91.52
								 L34.75 95.61 L50.81 95.61 L50.81 91.52 ZM50.81 98.94 L34.75 98.94 L34.75 103.03 L50.81 103.03 L50.81
								 98.94 Z" class="st2"/>
				</g>
				<g id="shape5-42" v:mID="5" v:groupContext="shape" transform="translate(141.604,0)">
					<title>Sheet.5</title>
					<path d="M22.97 77.37 A107.229 107.229 0 0 1 15.83 91.93 L15.83 140.12 L10.82 140.12 L10.82 99.5 A68.1071 68.1071
								 0 0 1 2.96 108.83 A26.3433 26.3433 -180 0 0 0 103.67 A78.3696 78.3696 -180 0 0 18.03 75.81 L22.97
								 77.37 ZM65.97 101.84 L60.74 101.84 L60.74 122.22 L55.65 122.22 L55.65 118.45 L40.3 118.45 C38.52
								 126.79 33.73 134.78 22.35 140.37 A22.274 22.274 -180 0 0 18.88 136.34 C28.98 131.89 33.3 125.31
								 35.07 118.49 L22.97 118.49 L22.97 113.58 L35.98 113.58 A65.2693 65.2693 -180 0 0 36.41 105.37 L36.41
								 101.8 L19.03 101.8 L19.03 96.96 L36.41 96.96 L36.41 85.43 L23.92 85.43 L23.92 80.49 L60.68 80.49
								 L60.68 96.96 L65.91 96.96 L65.97 101.84 ZM55.65 101.84 L41.57 101.84 L41.57 105.41 A64.5911 64.5911
								 0 0 1 41.14 113.62 L55.65 113.62 L55.65 101.84 ZM41.57 96.96 L55.65 96.96 L55.65 85.43 L41.57 85.43
								 L41.57 96.96 Z" class="st2"/>
				</g>
				<g id="shape6-44" v:mID="6" v:groupContext="shape" transform="translate(213.513,-0.303412)">
					<title>Sheet.6</title>
					<path d="M24.59 118.18 C23.4 115.85 20.42 111.26 18.03 107.65 L18.03 140.37 L12.87 140.37 L12.87 109.14 A75.389
								 75.389 0 0 1 2.61 127.59 A23.452 23.452 -180 0 0 0 122.86 A72.6226 72.6226 -180 0 0 12.15 100.66
								 L0.98 100.66 L0.98 95.75 L12.87 95.75 L12.87 85.04 C9.6 85.68 6.28 86.26 3.18 86.67 A25.5045 25.5045
								 -180 0 0 1.62 82.58 C9.53 81.29 18.79 79.26 24.09 76.92 L27.29 81.1 A65.073 65.073 0 0 1 18.04 83.9
								 L18.04 95.75 L28.43 95.75 L28.43 100.69 L18.04 100.69 L18.04 101.96 C20.24 104.44 26.31 112.21 27.79
								 114.12 L24.59 118.18 ZM56.56 121.93 L56.56 140.37 L51.38 140.37 L51.38 122.79 L28.34 126.61 L27.5
								 121.58 L51.38 117.76 L51.38 75.9 L56.56 75.9 L56.56 116.95 L64.82 115.69 L65.61 120.49 L56.56 121.93
								 ZM42.91 112.53 A61.0394 61.0394 -180 0 0 30.41 102.21 L33.66 99.11 A61.0572 61.0572 0 0 1 46.31
								 109.06 L42.91 112.53 ZM44.46 93.97 A54.6499 54.6499 -180 0 0 33.21 83.92 L36.55 80.88 A52.1333 52.1333
								 0 0 1 48.06 90.4 L44.46 93.97 Z" class="st2"/>
				</g>
				<g id="shape7-46" v:mID="7" v:groupContext="shape" transform="translate(285.19,-0.124934)">
					<title>Sheet.7</title>
					<path d="M23.61 111.44 L15.13 113.97 L15.13 133.98 C15.13 136.96 14.37 138.37 12.53 139.23 C10.69 140.08 7.78
								 140.21 2.91 140.14 A17.1517 17.1517 -180 0 0 1.29 135.34 C4.68 135.34 7.71 135.34 8.57 135.34 C9.42
								 135.34 9.98 134.98 9.98 133.98 L9.98 115.54 L1.5 118.01 L0 112.85 C2.84 112.21 6.23 111.37 9.98
								 110.3 L9.98 94.89 L0.93 94.89 L0.93 89.95 L9.98 89.95 L9.98 75.8 L15.13 75.8 L15.13 89.95 L22.92
								 89.95 L22.92 94.89 L15.13 94.89 L15.13 108.89 C17.69 108.19 20.36 107.4 22.92 106.62 L23.61 111.44
								 ZM61.24 103.51 A51.7585 51.7585 0 0 1 46.96 126.72 A48.189 48.189 -180 0 0 65.2 135.84 A21.4173
								 21.4173 -180 0 0 61.81 140.37 A50.9375 50.9375 0 0 1 42.92 130.12 A65.0016 65.0016 0 0 1 22.85 140.23
								 A19.811 19.811 -180 0 0 20.01 135.5 A58.2373 58.2373 -180 0 0 39.18 126.57 A56.7916 56.7916 0 0
								 1 27.57 107.19 L27.79 107.19 L25.45 107.19 L25.45 102.25 L40.59 102.25 L40.59 91.72 L24.04 91.72
								 L24.04 86.83 L40.59 86.83 L40.59 75.72 L45.74 75.72 L45.74 86.83 L62.65 86.83 L62.65 91.72 L45.74
								 91.72 L45.74 102.25 L56.99 102.25 L57.84 102.03 L61.24 103.51 ZM32.68 107.08 A48.0105 48.0105 -180
								 0 0 43.08 123.34 A43.1024 43.1024 -180 0 0 54.47 107.08 L32.68 107.08 Z" class="st2"/>
				</g>
			</g>
		</g>
	</g>
</svg>
