<?xml version="1.0" encoding="UTF-8" standalone="no"?>
<!DOCTYPE svg PUBLIC "-//W3C//DTD SVG 1.1//EN" "http://www.w3.org/Graphics/SVG/1.1/DTD/svg11.dtd">
<!-- Generated by Microsoft Visio, SVG Export logo1.svg Page-1 -->
<svg xmlns="http://www.w3.org/2000/svg" xmlns:xlink="http://www.w3.org/1999/xlink" xmlns:ev="http://www.w3.org/2001/xml-events"
		xmlns:v="http://schemas.microsoft.com/visio/2003/SVGExtensions/" width="18.409in" height="2.29958in"
		viewBox="0 0 1325.44 165.57" xml:space="preserve" color-interpolation-filters="sRGB" class="st3">
	<v:documentProperties v:langID="2052" v:metric="true" v:viewMarkup="false"/>

	<style type="text/css">
	<![CDATA[
		.st1 {fill:#69becb;stroke:none;stroke-linecap:butt;stroke-width:1.78478}
		.st2 {fill:#ffffff;stroke:none;stroke-linecap:butt;stroke-width:1.78478}
		.st3 {fill:none;fill-rule:evenodd;font-size:12px;overflow:visible;stroke-linecap:square;stroke-miterlimit:3}
	]]>
	</style>

	<g v:mID="0" v:index="1" v:groupContext="foregroundPage">
		<title>Page-1</title>
		<v:pageProperties v:drawingScale="1" v:pageScale="1" v:drawingUnits="19" v:shadowOffsetX="9" v:shadowOffsetY="-9"/>
		<g id="shape1-1" v:mID="1" v:groupContext="shape" transform="translate(1.78478,-1.78478)">
			<title>Sheet.1</title>
			<rect x="0" y="3.56955" width="1321.88" height="162" class="st1"/>
		</g>
		<g id="shape2-3" v:mID="2" v:groupContext="shape" transform="translate(795.726,-13.7827)">
			<title>Sheet.2</title>
			<path d="M142.62 63.11 A41.1927 41.1927 -180 0 0 125.54 45.1 A78.5302 78.5302 -180 0 0 101.34 36.17 A119.33 119.33 -180
						 0 0 84.13 33.84 C79.78 33.57 75.39 33.64 71 33.59 A79.0478 79.0478 -180 0 0 50.46 36.17 A50.1879 50.1879
						 -180 0 0 32.61 44.29 A30.3412 30.3412 -180 0 0 21.1 60.82 C19.61 66.18 18.01 71.53 16.31 76.79 C11.87 90.79
						 7.21 104.82 2.68 118.9 A52.0619 52.0619 -180 0 0 0 141.28 A23.0236 23.0236 -180 0 0 6.25 154.79 A28.8955
						 28.8955 -180 0 0 18.15 161.82 A69.6063 69.6063 -180 0 0 37.07 164.98 C43.57 165.3 50.06 165.37 56.54 165.57
						 L68.21 165.21 A117.26 117.26 -180 0 0 84.79 163.55 A77.7806 77.7806 -180 0 0 101.48 158.91 A57.1129 57.1129
						 -180 0 0 122.26 144.47 A79.601 79.601 -180 0 0 135.8 123.22 A131.163 131.163 -180 0 0 143.21 102.21 A114.85
						 114.85 -180 0 0 145.89 89.98 A78.5302 78.5302 -180 0 0 146.37 79.74 A37.4803 37.4803 -180 0 0 142.62 63.11
						 ZM124.04 76.92 A2.90919 2.90919 0 0 1 121.79 79.22 A9.20945 9.20945 0 0 1 119.81 79.42 L92.26 79.9 L71.64
						 80.28 A10.4588 10.4588 -180 0 0 69.39 80.51 A2.98058 2.98058 -180 0 0 67.96 81.35 A1.03517 1.03517 -180
						 0 0 68.68 83.13 A9.26299 9.26299 -180 0 0 69.68 83.13 C79.07 83.04 88.45 82.9 97.84 82.9 C103.02 82.9 108.19
						 83.13 113.35 83.33 A15.3848 15.3848 0 0 1 117.05 84.04 A4.97953 4.97953 0 0 1 120.62 90.73 A13.7785 13.7785
						 0 0 1 109.1 101.44 A60.3255 60.3255 0 0 1 99.63 102.28 C88.24 102.46 76.85 102.48 65.48 102.55 C64.25 102.55
						 63.22 103.08 63.34 103.74 C63.56 104.85 64.56 104.76 65.34 104.78 L86.04 104.92 C92.9 105.07 99.77 105.19
						 106.64 105.4 A17.8478 17.8478 0 0 1 110.64 106.01 A3.85512 3.85512 0 0 1 113.74 110.62 A11.0121 11.0121
						 0 0 1 106.39 120.5 A29.3953 29.3953 0 0 1 95.56 122.66 C83.72 122.93 71.87 123.06 60.04 123.23 C59.63 123.23
						 59.24 123.23 58.84 123.23 C57.81 123.36 57.06 123.97 57.2 124.64 A1.51706 1.51706 -180 0 0 58.88 125.91
						 C60.2 125.91 61.52 126.05 62.86 126.05 C68.66 126.05 74.46 125.91 80.28 126.05 C84.42 126.05 88.56 126.36
						 92.77 126.59 A6.51444 6.51444 0 0 1 98.29 130.77 A4.06929 4.06929 0 0 1 97.38 134.34 A16.1879 16.1879 0
						 0 1 90.13 139.58 A49.5454 49.5454 0 0 1 78.16 142.6 A127.844 127.844 0 0 1 55.85 143.78 A48.6887 48.6887
						 0 0 1 36.89 139.69 A14.0105 14.0105 0 0 1 28.43 128.98 A23.9339 23.9339 0 0 1 28.65 119.29 C30.14 113.13
						 31.76 107.01 33.48 100.92 C35.59 93.59 37.82 86.24 40.16 79.01 A56.7916 56.7916 0 0 1 45.17 67.57 A22.9879
						 22.9879 0 0 1 59.09 56.86 A65.7869 65.7869 0 0 1 73.59 54.22 A79.7617 79.7617 0 0 1 88.19 54.45 C97.27 55.47
						 106.03 57.54 113.92 62.5 A24.8798 24.8798 0 0 1 123.27 72.23 A6.92493 6.92493 0 0 1 124.04 76.92 Z"
					class="st2"/>
		</g>
		<g id="group23-5" transform="translate(974.061,-12.1228)" v:mID="23" v:groupContext="group">
			<title>Sheet.23</title>
			<g id="shape8-6" v:mID="8" v:groupContext="shape" transform="translate(1.39888E-14,-8.53123)">
				<title>Sheet.8</title>
				<path d="M0 135.85 L11.12 135.85 A11.6724 11.6724 0 0 1 16.47 137.01 A10.1018 10.1018 0 0 1 20.15 140.21 A14.1354
							 14.1354 0 0 1 22.27 144.94 A24.5228 24.5228 0 0 1 22.27 156.54 A13.9748 13.9748 0 0 1 20.15 161.27 A10.1018
							 10.1018 0 0 1 16.47 164.41 A11.6724 11.6724 0 0 1 11.12 165.57 L0 165.57 L0 135.85 ZM4.69 161.38 L9.32
							 161.38 A10.4945 10.4945 -180 0 0 13.81 160.55 A6.60367 6.60367 -180 0 0 16.56 158.31 A8.60262 8.60262
							 -180 0 0 17.92 154.93 A24.8262 24.8262 -180 0 0 17.92 146.54 A8.60262 8.60262 -180 0 0 16.56 143.17
							 A6.60367 6.60367 -180 0 0 13.81 140.92 A10.4945 10.4945 -180 0 0 9.32 140.1 L4.69 140.1 L4.69 161.38
							 Z" class="st2"/>
			</g>
			<g id="shape9-8" v:mID="9" v:groupContext="shape" transform="translate(29.3774,-8.69186)">
				<title>Sheet.9</title>
				<path d="M0 144.15 L4.02 144.15 L4.02 148.33 A4.83675 4.83675 0 0 1 4.77 146.54 A6.99633 6.99633 0 0 1 6.07 145.03
							 A6.26457 6.26457 0 0 1 7.85 143.92 A4.58688 4.58688 0 0 1 9.78 143.49 A6.65722 6.65722 0 0 1 10.82 143.49
							 L11.39 143.49 L11.39 148.1 L10.48 147.94 L9.55 147.94 A4.51549 4.51549 -180 0 0 7.5 148.42 A4.83675
							 4.83675 -180 0 0 5.82 149.83 A7.60315 7.60315 -180 0 0 4.69 152.15 A11.2084 11.2084 -180 0 0 4.28 155.31
							 L4.28 165.57 L0 165.57 L0 144.15 Z" class="st2"/>
			</g>
			<g id="shape10-10" v:mID="10" v:groupContext="shape" transform="translate(45.4404,-7.88871)">
				<title>Sheet.10</title>
				<path d="M17.08 164.91 L12.85 164.91 L12.85 161.98 A6.21102 6.21102 0 0 1 10.51 164.59 A5.90761 5.90761 0 0 1 7.32
							 165.57 A6.69291 6.69291 0 0 1 1.78 163.46 A9.92336 9.92336 0 0 1 0 157.11 L0 143.35 L4.28 143.35 L4.28
							 156.63 A6.21102 6.21102 -180 0 0 5.27 160.63 A3.37323 3.37323 -180 0 0 8.01 161.8 A4.99738 4.99738 -180
							 0 0 10.26 161.34 A3.94436 3.94436 -180 0 0 11.73 160.11 A5.1937 5.1937 -180 0 0 12.55 158.32 A10.7087
							 10.7087 -180 0 0 12.78 155.99 L12.78 143.49 L17.08 143.49 L17.08 164.91 Z" class="st2"/>
			</g>
			<g id="shape11-12" v:mID="11" v:groupContext="shape" transform="translate(69.9276,-8.54908)">
				<title>Sheet.11</title>
				<path d="M0.04 135.87 L4.28 135.87 L4.28 140.37 L0 140.37 L0.04 135.87 ZM0.04 144.08 L4.28 144.08 L4.28 165.57 L0
							 165.57 L0.04 144.08 Z" class="st2"/>
			</g>
			<g id="shape12-14" v:mID="12" v:groupContext="shape" transform="translate(80.8861,-7.97795)">
				<title>Sheet.12</title>
				<path d="M19.17 165 L15.1 165 L15.1 162.07 A5.35433 5.35433 0 0 1 12.58 164.75 A7.69239 7.69239 0 0 1 9.01 165.57
							 A8.65617 8.65617 0 0 1 5 164.68 A8.31706 8.31706 0 0 1 2.25 162.25 A11.4226 11.4226 0 0 1 0.55 158.68
							 A17.6336 17.6336 0 0 1 0 154.15 A15.8131 15.8131 0 0 1 0.71 149.1 A10.5123 10.5123 0 0 1 2.61 145.53
							 A7.49606 7.49606 0 0 1 5.32 143.51 A7.9601 7.9601 0 0 1 8.42 142.85 A9.33438 9.33438 0 0 1 10.21 143.05
							 A7.13911 7.13911 0 0 1 11.99 143.65 A6.21102 6.21102 0 0 1 14.74 146.24 L14.74 135.3 L19.03 135.3 L19.17
							 165 ZM4.19 154.45 A11.6189 11.6189 -180 0 0 4.52 157.16 A7.65669 7.65669 -180 0 0 5.5 159.54 A5.1937
							 5.1937 -180 0 0 7.17 161.21 A4.56903 4.56903 -180 0 0 9.58 161.84 A4.46194 4.46194 -180 0 0 12.05 161.16
							 A5.24724 5.24724 -180 0 0 13.72 159.38 A8.06719 8.06719 -180 0 0 14.71 156.93 A11.8509 11.8509 -180
							 0 0 15.03 154.16 A9.40577 9.40577 -180 0 0 13.58 148.58 A4.58688 4.58688 -180 0 0 9.66 146.58 A4.65827
							 4.65827 -180 0 0 7.1 147.26 A5.6042 5.6042 -180 0 0 5.43 149.04 A7.49606 7.49606 -180 0 0 4.48 151.54
							 A13.832 13.832 -180 0 0 4.19 154.45 Z" class="st2"/>
			</g>
			<g id="shape13-16" v:mID="13" v:groupContext="shape" transform="translate(118.83,-8.54908)">
				<title>Sheet.13</title>
				<path d="M0 135.87 L21.77 135.87 L21.77 140.37 L13.24 140.37 L13.24 165.57 L8.53 165.57 L8.53 140.3 L0 140.3 L0 135.87
							 Z" class="st2"/>
			</g>
			<g id="shape14-18" v:mID="14" v:groupContext="shape" transform="translate(140.926,-7.96544)">
				<title>Sheet.14</title>
				<path d="M4.19 155.44 A9.15591 9.15591 -180 0 0 4.52 157.86 A6.30026 6.30026 -180 0 0 5.48 159.9 A4.64042 4.64042
							 -180 0 0 7.09 161.29 A4.8189 4.8189 -180 0 0 9.42 161.83 A4.76535 4.76535 -180 0 0 12.46 160.92 A5.46142
							 5.46142 -180 0 0 14.24 158.24 L18.29 158.24 A9.20945 9.20945 0 0 1 17.13 161.36 A8.69186 8.69186 0 0
							 1 15.13 163.68 A8.19213 8.19213 0 0 1 12.53 165.09 A10.0661 10.0661 0 0 1 5.39 164.74 A8.31706 8.31706
							 0 0 1 2.41 162.4 A10.0483 10.0483 0 0 1 0.62 158.83 A15.4205 15.4205 0 0 1 -0 154.24 A14.064 14.064
							 0 0 1 0.66 149.89 A11.0835 11.0835 0 0 1 2.53 146.32 A9.12021 9.12021 0 0 1 5.48 143.84 A8.33491 8.33491
							 0 0 1 9.41 142.91 A7.9601 7.9601 0 0 1 13.51 143.98 A9.17375 9.17375 0 0 1 16.54 146.8 A11.6903 11.6903
							 0 0 1 18.33 150.81 A13.7606 13.7606 0 0 1 18.62 155.51 L4.19 155.44 ZM14.21 152.31 A8.13858 8.13858
							 -180 0 0 13.76 150.14 A5.80052 5.80052 -180 0 0 12.8 148.35 A5.12231 5.12231 -180 0 0 11.28 147.1 A4.05144
							 4.05144 -180 0 0 9.32 146.62 A4.62257 4.62257 -180 0 0 5.75 148.26 A6.49659 6.49659 -180 0 0 4.69 150.05
							 A6.62152 6.62152 -180 0 0 4.27 152.3 L14.21 152.31 Z" class="st2"/>
			</g>
			<g id="shape15-20" v:mID="15" v:groupContext="shape" transform="translate(164.628,-7.90656)">
				<title>Sheet.15</title>
				<path d="M14.01 150.58 A4.65827 4.65827 -180 0 0 12.56 147.56 A4.42625 4.42625 -180 0 0 9.57 146.54 A5.92546 5.92546
							 -180 0 0 7.78 146.85 A4.28346 4.28346 -180 0 0 6 148.03 A6.90709 6.90709 -180 0 0 4.68 150.4 A12.8147
							 12.8147 -180 0 0 4.16 154.38 A12.4934 12.4934 -180 0 0 4.44 157.06 A7.71024 7.71024 -180 0 0 5.34 159.43
							 A4.97953 4.97953 -180 0 0 6.94 161.11 A4.44409 4.44409 -180 0 0 12.42 160.47 A6.31811 6.31811 -180 0
							 0 13.94 156.9 L18.22 156.9 A10.8336 10.8336 0 0 1 15.35 163.34 A8.28136 8.28136 0 0 1 9.39 165.57 A9.08451
							 9.08451 0 0 1 5.34 164.71 A8.56693 8.56693 0 0 1 2.39 162.32 A10.4588 10.4588 0 0 1 0.61 158.75 A15.3312
							 15.3312 0 0 1 0 154.33 A17.0982 17.0982 0 0 1 0.59 149.77 A10.9228 10.9228 0 0 1 2.37 146.1 A8.15643
							 8.15643 0 0 1 5.35 143.63 A9.13806 9.13806 0 0 1 9.55 142.72 A10.6016 10.6016 0 0 1 12.76 143.21 A8.10289
							 8.10289 0 0 1 15.47 144.65 A7.87087 7.87087 0 0 1 17.42 147.06 A8.92388 8.92388 0 0 1 18.31 150.52 L14.01
							 150.58 Z" class="st2"/>
			</g>
			<g id="shape16-22" v:mID="16" v:groupContext="shape" transform="translate(189.115,-8.53123)">
				<title>Sheet.16</title>
				<path d="M0.12 135.85 L4.43 135.85 L4.43 146.9 A6.63937 6.63937 0 0 1 6.76 144.46 A6.56798 6.56798 0 0 1 10.24 143.47
							 A6.88924 6.88924 0 0 1 15.3 145.26 A7.47822 7.47822 0 0 1 17.08 150.77 L17.08 165.57 L12.8 165.57 L12.8
							 152.01 A6.31811 6.31811 -180 0 0 11.82 148.31 A3.35538 3.35538 -180 0 0 9 147.17 A4.4084 4.4084 -180
							 0 0 7.03 147.6 A4.55118 4.55118 -180 0 0 5.57 148.81 A5.83622 5.83622 -180 0 0 4.64 150.6 A6.92493 6.92493
							 -180 0 0 4.3 152.81 L4.3 165.52 L0 165.52 L0.12 135.85 Z" class="st2"/>
			</g>
			<g id="shape17-24" v:mID="17" v:groupContext="shape" transform="translate(213.602,-8.58478)">
				<title>Sheet.17</title>
				<path d="M0.05 144.05 L4.12 144.05 L4.12 147.22 A7.60315 7.60315 0 0 1 6.68 144.42 A6.37165 6.37165 0 0 1 10.24 143.38
							 A6.88924 6.88924 0 0 1 15.3 145.17 A7.47822 7.47822 0 0 1 17.08 150.68 L17.08 165.48 L12.8 165.48 L12.8
							 152.06 A6.31811 6.31811 -180 0 0 11.82 148.36 A3.35538 3.35538 -180 0 0 9 147.22 A4.4084 4.4084 -180
							 0 0 7.03 147.65 A4.55118 4.55118 -180 0 0 5.57 148.86 A6.28241 6.28241 -180 0 0 4.62 150.65 A7.46037
							 7.46037 -180 0 0 4.28 152.86 L4.28 165.57 L0 165.57 L0.05 144.05 Z" class="st2"/>
			</g>
			<g id="shape18-26" v:mID="18" v:groupContext="shape" transform="translate(237.161,-7.90656)">
				<title>Sheet.18</title>
				<path d="M9.83 165.57 A9.61995 9.61995 0 0 1 5.68 164.71 A8.79895 8.79895 0 0 1 2.59 162.36 A10.4945 10.4945 0 0
							 1 0.66 158.79 A15.5633 15.5633 0 0 1 -0 154.2 A15.4026 15.4026 0 0 1 0.66 149.65 A10.4945 10.4945 0
							 0 1 2.59 146.08 A8.79895 8.79895 0 0 1 5.68 143.72 A10.4766 10.4766 0 0 1 13.97 143.72 A8.79895 8.79895
							 0 0 1 17.06 145.94 A10.4945 10.4945 0 0 1 18.99 149.51 A15.4026 15.4026 0 0 1 19.65 154.06 A15.5633
							 15.5633 0 0 1 18.99 158.64 A10.4945 10.4945 0 0 1 17.06 162.21 A8.79895 8.79895 0 0 1 13.97 164.57 A9.6021
							 9.6021 0 0 1 9.83 165.57 ZM9.83 161.82 A4.56903 4.56903 -180 0 0 12.31 161.14 A5.58635 5.58635 -180
							 0 0 14.1 159.36 A8.06719 8.06719 -180 0 0 15.08 156.91 A11.8509 11.8509 -180 0 0 15.4 154.15 A12.0472
							 12.0472 -180 0 0 15.08 151.4 A7.88871 7.88871 -180 0 0 14.1 148.95 A5.72913 5.72913 -180 0 0 12.31 147.17
							 A5.01522 5.01522 -180 0 0 7.34 147.17 A5.72913 5.72913 -180 0 0 5.55 148.95 A7.88871 7.88871 -180 0
							 0 4.57 151.4 A12.0472 12.0472 -180 0 0 4.25 154.15 A11.8509 11.8509 -180 0 0 4.57 156.91 A8.06719 8.06719
							 -180 0 0 5.55 159.36 A5.58635 5.58635 -180 0 0 7.34 161.14 A4.58688 4.58688 -180 0 0 9.83 161.77 L9.83
							 161.82 Z" class="st2"/>
			</g>
			<g id="shape19-28" v:mID="19" v:groupContext="shape" transform="translate(263.397,-8.54908)">
				<title>Sheet.19</title>
				<rect x="0" y="135.871" width="4.30131" height="29.6987" class="st2"/>
			</g>
			<g id="shape20-30" v:mID="20" v:groupContext="shape" transform="translate(274.177,-7.90656)">
				<title>Sheet.20</title>
				<path d="M9.82 165.57 A9.6021 9.6021 0 0 1 5.68 164.71 A8.79895 8.79895 0 0 1 2.59 162.36 A10.4945 10.4945 0 0 1
							 0.66 158.79 A15.5633 15.5633 0 0 1 -0 154.2 A15.4026 15.4026 0 0 1 0.66 149.65 A10.4945 10.4945 0 0
							 1 2.59 146.08 A8.79895 8.79895 0 0 1 5.68 143.72 A10.4766 10.4766 0 0 1 13.97 143.72 A8.79895 8.79895
							 0 0 1 17.06 145.94 A10.4945 10.4945 0 0 1 18.99 149.51 A15.4026 15.4026 0 0 1 19.65 154.06 A15.5633
							 15.5633 0 0 1 18.99 158.64 A10.4945 10.4945 0 0 1 17.06 162.21 A8.79895 8.79895 0 0 1 13.97 164.57 A9.61995
							 9.61995 0 0 1 9.82 165.57 ZM9.82 161.82 A4.58688 4.58688 -180 0 0 12.31 161.14 A5.58635 5.58635 -180
							 0 0 14.1 159.36 A8.06719 8.06719 -180 0 0 15.08 156.91 A11.8509 11.8509 -180 0 0 15.4 154.15 A12.0472
							 12.0472 -180 0 0 15.08 151.4 A7.88871 7.88871 -180 0 0 14.1 148.95 A5.72913 5.72913 -180 0 0 12.31 147.17
							 A5.01522 5.01522 -180 0 0 7.34 147.17 A5.72913 5.72913 -180 0 0 5.55 148.95 A7.47822 7.47822 -180 0
							 0 4.57 151.4 A12.0472 12.0472 -180 0 0 4.25 154.15 A11.8509 11.8509 -180 0 0 4.57 156.91 A7.63885 7.63885
							 -180 0 0 5.55 159.36 A5.58635 5.58635 -180 0 0 7.34 161.14 A4.56903 4.56903 -180 0 0 9.82 161.77 L9.82
							 161.82 Z" class="st2"/>
			</g>
			<g id="shape21-32" v:mID="21" v:groupContext="shape" transform="translate(299.289,-0.0178478)">
				<title>Sheet.21</title>
				<path d="M18.9 155.9 A8.54908 8.54908 0 0 1 9.35 165.57 A14.064 14.064 0 0 1 6.39 165.25 A8.24567 8.24567 0 0 1 3.69
							 164.11 A6.69291 6.69291 0 0 1 1.59 162.05 A6.94278 6.94278 0 0 1 0.61 158.88 L4.89 158.88 A3.98005 3.98005
							 -180 0 0 5.53 160.5 A3.28399 3.28399 -180 0 0 6.6 161.48 A3.90866 3.90866 -180 0 0 7.98 161.95 A11.2976
							 11.2976 -180 0 0 9.57 162.05 A4.72966 4.72966 -180 0 0 13.37 160.63 A6.13963 6.13963 -180 0 0 14.56
							 156.54 L14.56 153.25 A6.94278 6.94278 0 0 1 12.1 156.04 A6.05039 6.05039 0 0 1 8.73 157.04 A8.0315 8.0315
							 0 0 1 4.77 156.15 A7.621 7.621 0 0 1 2.05 153.68 A10.7087 10.7087 0 0 1 0.5 150.11 A18.0262 18.0262
							 0 0 1 0 145.74 A13.832 13.832 0 0 1 0.61 141.6 A10.7087 10.7087 0 0 1 2.39 138.17 A8.15643 8.15643 0
							 0 1 5.16 135.78 A7.63885 7.63885 0 0 1 8.85 134.89 A6.88924 6.88924 0 0 1 12.24 135.75 A5.6042 5.6042
							 0 0 1 14.62 138.44 L14.62 135.48 L18.9 135.48 L18.9 155.9 ZM9.39 153.27 A4.39055 4.39055 -180 0 0 11.82
							 152.63 A5.15801 5.15801 -180 0 0 13.44 150.85 A7.85302 7.85302 -180 0 0 14.33 148.42 A12.6719 12.6719
							 -180 0 0 14.62 145.69 A11.9045 11.9045 -180 0 0 14.31 143.03 A7.76378 7.76378 -180 0 0 13.4 140.73 A4.92598
							 4.92598 -180 0 0 11.78 139.14 A4.7832 4.7832 -180 0 0 9.39 138.57 A4.19423 4.19423 -180 0 0 6.98 139.23
							 A5.05092 5.05092 -180 0 0 5.41 141.01 A7.83517 7.83517 -180 0 0 4.53 143.44 A13.7606 13.7606 -180 0
							 0 4.27 146.12 A11.4404 11.4404 -180 0 0 4.57 148.72 A8.17428 8.17428 -180 0 0 5.5 151.01 A5.24724 5.24724
							 -180 0 0 7.07 152.63 A4.21207 4.21207 -180 0 0 9.39 153.29 L9.39 153.27 Z" class="st2"/>
			</g>
			<g id="shape22-34" v:mID="22" v:groupContext="shape" transform="translate(323.205,-2.84217E-14)">
				<title>Sheet.22</title>
				<path d="M0 135.46 L4.69 135.46 L9.78 151.52 L14.71 135.46 L19.19 135.46 L11.69 158.2 C11.33 159.16 10.99 160.09
							 10.66 160.98 A10.4588 10.4588 0 0 1 9.42 163.34 A5.35433 5.35433 0 0 1 4.8 165.57 A16.4556 16.4556 0
							 0 1 1.84 165.32 L1.84 161.32 L2.86 161.5 A4.67612 4.67612 -180 0 0 3.87 161.61 A3.42677 3.42677 -180
							 0 0 5.1 161.41 A2.14173 2.14173 -180 0 0 5.93 160.8 A4.35486 4.35486 -180 0 0 6.46 159.86 A7.88871 7.88871
							 -180 0 0 6.87 158.61 L7.37 156.95 L0 135.46 Z" class="st2"/>
			</g>
		</g>
		<g id="group24-36" transform="translate(970.206,-71.4845)" v:mID="24" v:groupContext="group">
			<title>Sheet.24</title>
			<g id="shape3-37" v:mID="3" v:groupContext="shape" transform="translate(-1.59872E-14,-0.142782)">
				<title>Sheet.3</title>
				<path d="M20.95 117.92 A114.101 114.101 0 0 1 15.08 127.75 L15.08 165.57 L10.24 165.57 L10.24 134.46 A106.962 106.962
							 0 0 1 3.11 142.65 A40.2646 40.2646 -180 0 0 0 137.92 A82.5995 82.5995 -180 0 0 16.4 116.29 L20.95 117.92
							 ZM19.72 102.94 A114.529 114.529 0 0 1 2.89 120.63 A28.0745 28.0745 -180 0 0 0.27 116.45 A80.315 80.315
							 -180 0 0 14.9 101.03 L19.72 102.94 ZM17.38 160.7 A41.6924 41.6924 -180 0 0 23.68 147.56 L27.77 149.11
							 C26.29 153.56 24.31 159.22 21.49 162.89 L17.38 160.7 ZM65.32 142.6 L20.15 142.6 L20.15 138.28 L65.32
							 138.28 L65.32 142.6 ZM38.37 116.22 C38.59 114.74 38.87 112.97 39.16 111.13 L20.77 111.13 L20.77 106.81
							 L39.73 106.81 C40.01 104.69 40.23 102.57 40.35 100.8 L45.71 101.09 C45.44 102.87 45.15 104.9 44.8 106.81
							 L64.81 106.81 L64.81 111.13 L44.24 111.13 L43.26 116.22 L62.34 116.22 L62.34 133.68 L23.88 133.68 L23.88
							 116.22 L38.37 116.22 ZM35.23 120.18 L28.24 120.18 L28.24 129.71 L35.23 129.71 L35.23 120.18 ZM47.89
							 160.48 C50.15 160.48 50.51 159.7 50.79 153.75 A11.0478 11.0478 -180 0 0 54.95 155.4 C54.47 162.8 53.04
							 164.57 48.39 164.57 L38 164.57 C32.13 164.57 30.57 163.3 30.57 158.64 L30.57 148.04 L35.23 148.04 L35.23
							 158.64 C35.23 160.13 35.66 160.43 38.41 160.43 L47.89 160.48 ZM42.87 153.49 A78.5302 78.5302 -180 0
							 0 37.86 144.44 L41.75 143.01 C43.53 145.78 45.83 149.52 46.98 151.72 L42.87 153.49 ZM46.44 120.18 L39.09
							 120.18 L39.09 129.71 L46.44 129.71 L46.44 120.18 ZM50.33 129.71 L57.9 129.71 L57.9 120.18 L50.33 120.18
							 L50.33 129.71 ZM58.18 146.81 A78.9585 78.9585 0 0 1 65.32 160.32 L61.08 162.23 A70.1239 70.1239 -180
							 0 0 54.15 148.44 L58.18 146.81 Z" class="st2"/>
			</g>
			<g id="shape4-39" v:mID="4" v:groupContext="shape" transform="translate(71.6766,-0.0713911)">
				<title>Sheet.4</title>
				<path d="M9.12 117.84 C7.34 119.11 5.3 120.33 3.27 121.52 A17.8478 17.8478 -180 0 0 -0 117.95 A54.4535 54.4535 -180
							 0 0 20.01 100.69 L25.17 101.76 A39.8362 39.8362 0 0 1 22.49 105.44 L40.01 105.44 L40.94 105.15 L44.33
							 107.21 A30.5197 30.5197 0 0 1 39.75 113.22 L55.81 113.22 L55.81 131.77 L9.12 131.77 L9.12 117.84 ZM62.29
							 134.82 L62.29 138.57 L2.41 138.57 L2.41 134.82 L62.29 134.82 ZM11.24 141.6 L53.74 141.6 L53.74 165.34
							 L48.39 165.34 L48.39 163.09 L16.4 163.09 L16.4 165.57 L11.24 165.57 L11.24 141.6 ZM14.01 120.81 L29.91
							 120.81 L29.91 116.72 L14.01 116.72 L14.01 120.81 ZM14.01 128.23 L29.91 128.23 L29.91 124.14 L14.01 124.14
							 L14.01 128.23 ZM19.36 109.08 A51.7585 51.7585 0 0 1 15.12 113.19 L33.43 113.19 A25.8793 25.8793 -180
							 0 0 37.46 109.08 L19.36 109.08 ZM16.46 145.49 L16.46 150.43 L48.49 150.43 L48.49 145.49 L16.46 145.49
							 ZM48.49 159.27 L48.49 153.91 L16.4 153.91 L16.4 159.27 L48.49 159.27 ZM50.81 116.72 L34.75 116.72 L34.75
							 120.81 L50.81 120.81 L50.81 116.72 ZM50.81 124.14 L34.75 124.14 L34.75 128.23 L50.81 128.23 L50.81 124.14
							 Z" class="st2"/>
			</g>
			<g id="shape5-41" v:mID="5" v:groupContext="shape" transform="translate(141.604,0)">
				<title>Sheet.5</title>
				<path d="M22.97 102.57 A107.229 107.229 0 0 1 15.83 117.13 L15.83 165.32 L10.82 165.32 L10.82 124.7 A68.1071 68.1071
							 0 0 1 2.96 134.03 A26.3433 26.3433 -180 0 0 0 128.87 A78.3696 78.3696 -180 0 0 18.03 101.01 L22.97 102.57
							 ZM65.97 127.04 L60.74 127.04 L60.74 147.42 L55.65 147.42 L55.65 143.65 L40.3 143.65 C38.52 151.99 33.73
							 159.98 22.35 165.57 A22.274 22.274 -180 0 0 18.88 161.54 C28.98 157.09 33.3 150.51 35.07 143.69 L22.97
							 143.69 L22.97 138.78 L35.98 138.78 A65.2693 65.2693 -180 0 0 36.41 130.57 L36.41 127 L19.03 127 L19.03
							 122.16 L36.41 122.16 L36.41 110.63 L23.92 110.63 L23.92 105.69 L60.68 105.69 L60.68 122.16 L65.91 122.16
							 L65.97 127.04 ZM55.65 127.04 L41.57 127.04 L41.57 130.61 A64.5911 64.5911 0 0 1 41.14 138.82 L55.65
							 138.82 L55.65 127.04 ZM41.57 122.16 L55.65 122.16 L55.65 110.63 L41.57 110.63 L41.57 122.16 Z"
						class="st2"/>
			</g>
			<g id="shape6-43" v:mID="6" v:groupContext="shape" transform="translate(213.513,-0.303412)">
				<title>Sheet.6</title>
				<path d="M24.59 143.38 C23.4 141.05 20.42 136.46 18.03 132.85 L18.03 165.57 L12.87 165.57 L12.87 134.34 A75.389 75.389
							 0 0 1 2.61 152.79 A23.452 23.452 -180 0 0 0 148.06 A72.6226 72.6226 -180 0 0 12.15 125.86 L0.98 125.86
							 L0.98 120.95 L12.87 120.95 L12.87 110.24 C9.6 110.88 6.28 111.46 3.18 111.87 A25.5045 25.5045 -180 0
							 0 1.62 107.78 C9.53 106.49 18.79 104.46 24.09 102.12 L27.29 106.3 A65.073 65.073 0 0 1 18.04 109.1 L18.04
							 120.95 L28.43 120.95 L28.43 125.89 L18.04 125.89 L18.04 127.16 C20.24 129.64 26.31 137.41 27.79 139.32
							 L24.59 143.38 ZM56.56 147.13 L56.56 165.57 L51.38 165.57 L51.38 147.99 L28.34 151.81 L27.5 146.78 L51.38
							 142.96 L51.38 101.1 L56.56 101.1 L56.56 142.15 L64.82 140.89 L65.61 145.69 L56.56 147.13 ZM42.91 137.73
							 A61.0394 61.0394 -180 0 0 30.41 127.41 L33.66 124.31 A61.0572 61.0572 0 0 1 46.31 134.26 L42.91 137.73
							 ZM44.46 119.17 A54.6499 54.6499 -180 0 0 33.21 109.12 L36.55 106.08 A52.1333 52.1333 0 0 1 48.06 115.6
							 L44.46 119.17 Z" class="st2"/>
			</g>
			<g id="shape7-45" v:mID="7" v:groupContext="shape" transform="translate(285.19,-0.124934)">
				<title>Sheet.7</title>
				<path d="M23.61 136.64 L15.13 139.17 L15.13 159.18 C15.13 162.16 14.37 163.57 12.53 164.43 C10.69 165.28 7.78 165.41
							 2.91 165.34 A17.1517 17.1517 -180 0 0 1.29 160.54 C4.68 160.54 7.71 160.54 8.57 160.54 C9.42 160.54
							 9.98 160.18 9.98 159.18 L9.98 140.74 L1.5 143.21 L0 138.05 C2.84 137.41 6.23 136.57 9.98 135.5 L9.98
							 120.09 L0.93 120.09 L0.93 115.15 L9.98 115.15 L9.98 101 L15.13 101 L15.13 115.15 L22.92 115.15 L22.92
							 120.09 L15.13 120.09 L15.13 134.09 C17.69 133.39 20.36 132.6 22.92 131.82 L23.61 136.64 ZM61.24 128.71
							 A51.7585 51.7585 0 0 1 46.96 151.92 A48.189 48.189 -180 0 0 65.2 161.04 A21.4173 21.4173 -180 0 0 61.81
							 165.57 A50.9375 50.9375 0 0 1 42.92 155.32 A65.0016 65.0016 0 0 1 22.85 165.43 A19.811 19.811 -180 0
							 0 20.01 160.7 A58.2373 58.2373 -180 0 0 39.18 151.77 A56.7916 56.7916 0 0 1 27.57 132.39 L27.79 132.39
							 L25.45 132.39 L25.45 127.45 L40.59 127.45 L40.59 116.92 L24.04 116.92 L24.04 112.03 L40.59 112.03 L40.59
							 100.92 L45.74 100.92 L45.74 112.03 L62.65 112.03 L62.65 116.92 L45.74 116.92 L45.74 127.45 L56.99 127.45
							 L57.84 127.23 L61.24 128.71 ZM32.68 132.28 A48.0105 48.0105 -180 0 0 43.08 148.54 A43.1024 43.1024 -180
							 0 0 54.47 132.28 L32.68 132.28 Z" class="st2"/>
			</g>
		</g>
	</g>
</svg>
