<?xml version="1.0" encoding="UTF-8" standalone="no"?>
<!DOCTYPE svg PUBLIC "-//W3C//DTD SVG 1.1//EN" "http://www.w3.org/Graphics/SVG/1.1/DTD/svg11.dtd">
<!-- Generated by Microsoft Visio, SVG Export logo_only.svg Page-1 -->
<svg xmlns="http://www.w3.org/2000/svg" xmlns:xlink="http://www.w3.org/1999/xlink" xmlns:ev="http://www.w3.org/2001/xml-events"
		xmlns:v="http://schemas.microsoft.com/visio/2003/SVGExtensions/" width="1.46007in" height="1.31909in"
		viewBox="0 0 105.125 94.9745" xml:space="preserve" color-interpolation-filters="sRGB" class="st2">
	<v:documentProperties v:langID="2052" v:metric="true" v:viewMarkup="false"/>

	<style type="text/css">
	<![CDATA[
		.st1 {fill:#69becb;stroke:none;stroke-linecap:butt;stroke-width:1.78478}
		.st2 {fill:none;fill-rule:evenodd;font-size:12px;overflow:visible;stroke-linecap:square;stroke-miterlimit:3}
	]]>
	</style>

	<g v:mID="0" v:index="1" v:groupContext="foregroundPage">
		<title>Page-1</title>
		<v:pageProperties v:drawingScale="1" v:pageScale="1" v:drawingUnits="19" v:shadowOffsetX="8.99998"
				v:shadowOffsetY="-8.99998"/>
		<g id="shape2-1" v:mID="2" v:groupContext="shape" transform="translate(1.96139,-1.78478)">
			<title>Sheet.2</title>
			<path d="M98.77 24.01 A28.5283 28.5283 -180 0 0 86.94 11.54 A54.3867 54.3867 -180 0 0 70.18 5.36 A82.643 82.643 -180
						 0 0 58.26 3.74 C55.25 3.56 52.21 3.61 49.17 3.57 A54.7452 54.7452 -180 0 0 34.95 5.36 A34.758 34.758 -180
						 0 0 22.58 10.98 A21.013 21.013 -180 0 0 14.61 22.43 C13.58 26.14 12.47 29.85 11.3 33.49 C8.22 43.18 4.99
						 52.9 1.86 62.65 A36.0559 36.0559 -180 0 0 0 78.15 A15.9452 15.9452 -180 0 0 4.33 87.51 A20.0118 20.0118
						 -180 0 0 12.57 92.38 A48.2064 48.2064 -180 0 0 25.67 94.57 C30.17 94.79 34.67 94.84 39.16 94.97 L47.24 94.73
						 A81.2094 81.2094 -180 0 0 58.72 93.58 A53.8676 53.8676 -180 0 0 70.28 90.36 A39.554 39.554 -180 0 0 84.67
						 80.36 A55.1283 55.1283 -180 0 0 94.05 65.64 A90.838 90.838 -180 0 0 99.18 51.09 A79.5403 79.5403 -180 0
						 0 101.04 42.62 A54.3867 54.3867 -180 0 0 101.37 35.53 A25.9573 25.9573 -180 0 0 98.77 24.01 ZM85.9 33.58
						 A2.01478 2.01478 0 0 1 84.35 35.17 A6.37808 6.37808 0 0 1 82.98 35.31 L63.9 35.64 L49.61 35.91 A7.24333
						 7.24333 -180 0 0 48.06 36.07 A2.06423 2.06423 -180 0 0 47.07 36.65 a0.716916 0.716916 -180 0 0 0.498642
						 1.23275 A6.41516 6.41516 -180 0 0 48.26 37.88 C54.76 37.82 61.26 37.72 67.76 37.72 C71.35 37.72 74.93 37.88
						 78.5 38.02 A10.6549 10.6549 0 0 1 81.06 38.51 A3.44861 3.44861 0 0 1 83.54 43.14 A9.54241 9.54241 0 0 1
						 75.56 50.56 A41.7789 41.7789 0 0 1 69 51.14 C61.11 51.27 53.22 51.28 45.35 51.33 C44.5 51.33 43.78 51.7
						 43.87 52.15 C44.02 52.92 44.71 52.86 45.25 52.87 L59.59 52.97 C64.34 53.07 69.1 53.16 73.85 53.3 A12.3606
						 12.3606 0 0 1 76.62 53.73 A2.6699 2.6699 0 0 1 78.77 56.92 A7.62652 7.62652 0 0 1 73.68 63.76 A20.358 20.358
						 0 0 1 66.18 65.26 C57.98 65.44 49.77 65.53 41.58 65.65 C41.3 65.65 41.03 65.65 40.75 65.65 C40.04 65.74
						 39.52 66.16 39.61 66.63 A1.05065 1.05065 -180 0 0 40.78 67.51 C41.69 67.51 42.61 67.6 43.53 67.6 C47.55
						 67.6 51.57 67.51 55.6 67.6 C58.47 67.6 61.33 67.82 64.25 67.98 A4.51163 4.51163 0 0 1 68.07 70.87 A2.81822
						 2.81822 0 0 1 67.44 73.35 A11.2111 11.2111 0 0 1 62.42 76.97 A34.3131 34.3131 0 0 1 54.13 79.07 A88.5394
						 88.5394 0 0 1 38.68 79.88 A33.7198 33.7198 0 0 1 25.55 77.05 A9.70309 9.70309 0 0 1 19.69 69.63 A16.5756
						 16.5756 0 0 1 19.84 62.92 C20.87 58.66 22 54.42 23.19 50.2 C24.65 45.12 26.19 40.03 27.81 35.03 A39.3315
						 39.3315 0 0 1 31.28 27.1 A15.9205 15.9205 0 0 1 40.92 19.69 A45.5613 45.5613 0 0 1 50.97 17.86 A55.2396
						 55.2396 0 0 1 61.08 18.02 C67.37 18.72 73.43 20.16 78.9 23.59 A17.2307 17.2307 0 0 1 85.37 30.33 A4.79592
						 4.79592 0 0 1 85.9 33.58 Z" class="st1"/>
		</g>
	</g>
</svg>
