<?xml version="1.0" encoding="UTF-8" standalone="no"?>
<!DOCTYPE svg PUBLIC "-//W3C//DTD SVG 1.1//EN" "http://www.w3.org/Graphics/SVG/1.1/DTD/svg11.dtd">
<!-- Generated by Microsoft Visio, SVG Export logo.svg Page-1 -->
<svg xmlns="http://www.w3.org/2000/svg" xmlns:xlink="http://www.w3.org/1999/xlink" xmlns:ev="http://www.w3.org/2001/xml-events"
		xmlns:v="http://schemas.microsoft.com/visio/2003/SVGExtensions/" width="9.92458in" height="3.02421in"
		viewBox="0 0 714.57 217.743" xml:space="preserve" color-interpolation-filters="sRGB" class="st3">
	<v:documentProperties v:langID="2052" v:metric="true" v:viewMarkup="false"/>

	<style type="text/css">
	<![CDATA[
		.st1 {fill:#69becb;stroke:none;stroke-linecap:butt;stroke-width:1.78478}
		.st2 {fill:#ffffff;stroke:none;stroke-linecap:butt;stroke-width:1.78478}
		.st3 {fill:none;fill-rule:evenodd;font-size:12px;overflow:visible;stroke-linecap:square;stroke-miterlimit:3}
	]]>
	</style>

	<g v:mID="0" v:index="1" v:groupContext="foregroundPage">
		<title>Page-1</title>
		<v:pageProperties v:drawingScale="1" v:pageScale="1" v:drawingUnits="19" v:shadowOffsetX="9" v:shadowOffsetY="-9"/>
		<g id="group24-1" transform="translate(1.78478,-1.78478)" v:mID="24" v:groupContext="group">
			<title>Sheet.24</title>
			<g id="shape1-2" v:mID="1" v:groupContext="shape">
				<title>Sheet.1</title>
				<rect x="0" y="3.56956" width="711" height="214.173" class="st1"/>
			</g>
			<g id="group23-4" transform="translate(93.0664,-40.2556)" v:mID="23" v:groupContext="group">
				<title>Sheet.23</title>
				<g id="shape2-5" v:mID="2" v:groupContext="shape" transform="translate(0,-1.65984)">
					<title>Sheet.2</title>
					<path d="M142.62 115.28 A41.1927 41.1927 -180 0 0 125.54 97.27 A78.5302 78.5302 -180 0 0 101.34 88.35 A119.33
								 119.33 -180 0 0 84.13 86.01 C79.78 85.74 75.39 85.81 71 85.76 A79.0478 79.0478 -180 0 0 50.46 88.35
								 A50.1879 50.1879 -180 0 0 32.61 96.47 A30.3412 30.3412 -180 0 0 21.1 112.99 C19.61 118.35 18.01
								 123.7 16.31 128.97 C11.87 142.96 7.21 156.99 2.68 171.07 A52.0619 52.0619 -180 0 0 0 193.45 A23.0236
								 23.0236 -180 0 0 6.25 206.96 A28.8955 28.8955 -180 0 0 18.15 213.99 A69.6063 69.6063 -180 0 0 37.07
								 217.15 C43.57 217.48 50.06 217.55 56.54 217.74 L68.21 217.39 A117.26 117.26 -180 0 0 84.79 215.73
								 A77.7806 77.7806 -180 0 0 101.48 211.09 A57.1129 57.1129 -180 0 0 122.26 196.65 A79.601 79.601 -180
								 0 0 135.8 175.39 A131.163 131.163 -180 0 0 143.21 154.38 A114.85 114.85 -180 0 0 145.89 142.16 A78.5302
								 78.5302 -180 0 0 146.37 131.91 A37.4803 37.4803 -180 0 0 142.62 115.28 ZM124.04 129.09 A2.90919
								 2.90919 0 0 1 121.79 131.4 A9.20945 9.20945 0 0 1 119.81 131.59 L92.26 132.07 L71.64 132.45 A10.4588
								 10.4588 -180 0 0 69.39 132.68 A2.98058 2.98058 -180 0 0 67.96 133.52 A1.03517 1.03517 -180 0 0 68.68
								 135.3 A9.26299 9.26299 -180 0 0 69.68 135.3 C79.07 135.21 88.45 135.07 97.84 135.07 C103.02 135.07
								 108.19 135.3 113.35 135.5 A15.3848 15.3848 0 0 1 117.05 136.21 A4.97953 4.97953 0 0 1 120.62 142.91
								 A13.7785 13.7785 0 0 1 109.1 153.62 A60.3255 60.3255 0 0 1 99.63 154.45 C88.24 154.63 76.85 154.65
								 65.48 154.72 C64.25 154.72 63.22 155.26 63.34 155.92 C63.56 157.02 64.56 156.94 65.34 156.95 L86.04
								 157.1 C92.9 157.24 99.77 157.36 106.64 157.58 A17.8478 17.8478 0 0 1 110.64 158.18 A3.85512 3.85512
								 0 0 1 113.74 162.79 A11.0121 11.0121 0 0 1 106.39 172.68 A29.3953 29.3953 0 0 1 95.56 174.84 C83.72
								 175.1 71.87 175.23 60.04 175.41 C59.63 175.41 59.24 175.41 58.84 175.41 C57.81 175.53 57.06 176.14
								 57.2 176.82 A1.51706 1.51706 -180 0 0 58.88 178.09 C60.2 178.09 61.52 178.23 62.86 178.23 C68.66
								 178.23 74.46 178.09 80.28 178.23 C84.42 178.23 88.56 178.53 92.77 178.76 A6.51444 6.51444 0 0 1
								 98.29 182.94 A4.06929 4.06929 0 0 1 97.38 186.51 A16.1879 16.1879 0 0 1 90.13 191.76 A49.5454 49.5454
								 0 0 1 78.16 194.77 A127.844 127.844 0 0 1 55.85 195.95 A48.6887 48.6887 0 0 1 36.89 191.86 A14.0105
								 14.0105 0 0 1 28.43 181.15 A23.9339 23.9339 0 0 1 28.65 171.46 C30.14 165.3 31.76 159.18 33.48 153.1
								 C35.59 145.76 37.82 138.41 40.16 131.18 A56.7916 56.7916 0 0 1 45.17 119.74 A22.9879 22.9879 0 0
								 1 59.09 109.03 A65.7869 65.7869 0 0 1 73.59 106.39 A79.7617 79.7617 0 0 1 88.19 106.62 C97.27 107.64
								 106.03 109.71 113.92 114.67 A24.8798 24.8798 0 0 1 123.27 124.4 A6.92493 6.92493 0 0 1 124.04 129.09
								 Z" class="st2"/>
				</g>
				<g id="shape3-7" v:mID="3" v:groupContext="shape" transform="translate(174.48,-59.5045)">
					<title>Sheet.3</title>
					<path d="M20.95 170.09 A114.101 114.101 0 0 1 15.08 179.92 L15.08 217.74 L10.24 217.74 L10.24 186.63 A106.962
								 106.962 0 0 1 3.11 194.83 A40.2646 40.2646 -180 0 0 0 190.1 A82.5995 82.5995 -180 0 0 16.4 168.47
								 L20.95 170.09 ZM19.72 155.11 A114.529 114.529 0 0 1 2.89 172.8 A28.0745 28.0745 -180 0 0 0.27 168.63
								 A80.315 80.315 -180 0 0 14.9 153.21 L19.72 155.11 ZM17.38 212.87 A41.6924 41.6924 -180 0 0 23.68
								 199.73 L27.77 201.29 C26.29 205.73 24.31 211.39 21.49 215.07 L17.38 212.87 ZM65.32 194.77 L20.15
								 194.77 L20.15 190.45 L65.32 190.45 L65.32 194.77 ZM38.37 168.39 C38.59 166.91 38.87 165.15 39.16
								 163.31 L20.77 163.31 L20.77 158.99 L39.73 158.99 C40.01 156.86 40.23 154.74 40.35 152.97 L45.71
								 153.26 C45.44 155.04 45.15 157.08 44.8 158.99 L64.81 158.99 L64.81 163.31 L44.24 163.31 L43.26 168.39
								 L62.34 168.39 L62.34 185.85 L23.88 185.85 L23.88 168.39 L38.37 168.39 ZM35.23 172.36 L28.24 172.36
								 L28.24 181.89 L35.23 181.89 L35.23 172.36 ZM47.89 212.66 C50.15 212.66 50.51 211.87 50.79 205.93
								 A11.0478 11.0478 -180 0 0 54.95 207.57 C54.47 214.98 53.04 216.74 48.39 216.74 L38 216.74 C32.13
								 216.74 30.57 215.48 30.57 210.82 L30.57 200.22 L35.23 200.22 L35.23 210.82 C35.23 212.3 35.66 212.6
								 38.41 212.6 L47.89 212.66 ZM42.87 205.66 A78.5302 78.5302 -180 0 0 37.86 196.61 L41.75 195.18 C43.53
								 197.95 45.83 201.7 46.98 203.89 L42.87 205.66 ZM46.44 172.36 L39.09 172.36 L39.09 181.89 L46.44
								 181.89 L46.44 172.36 ZM50.33 181.89 L57.9 181.89 L57.9 172.36 L50.33 172.36 L50.33 181.89 ZM58.18
								 198.98 A78.9585 78.9585 0 0 1 65.32 212.5 L61.08 214.41 A70.1239 70.1239 -180 0 0 54.15 200.61 L58.18
								 198.98 Z" class="st2"/>
				</g>
				<g id="shape4-9" v:mID="4" v:groupContext="shape" transform="translate(246.156,-59.4331)">
					<title>Sheet.4</title>
					<path d="M9.12 170.02 C7.34 171.29 5.3 172.5 3.27 173.69 A17.8478 17.8478 -180 0 0 -0 170.12 A54.4535 54.4535
								 -180 0 0 20.01 152.87 L25.17 153.94 A39.8362 39.8362 0 0 1 22.49 157.61 L40.01 157.61 L40.94 157.33
								 L44.33 159.38 A30.5197 30.5197 0 0 1 39.75 165.4 L55.81 165.4 L55.81 183.94 L9.12 183.94 L9.12 170.02
								 ZM62.29 186.99 L62.29 190.74 L2.41 190.74 L2.41 186.99 L62.29 186.99 ZM11.24 193.77 L53.74 193.77
								 L53.74 217.51 L48.39 217.51 L48.39 215.26 L16.4 215.26 L16.4 217.74 L11.24 217.74 L11.24 193.77
								 ZM14.01 172.98 L29.91 172.98 L29.91 168.89 L14.01 168.89 L14.01 172.98 ZM14.01 180.41 L29.91 180.41
								 L29.91 176.32 L14.01 176.32 L14.01 180.41 ZM19.36 161.25 A51.7585 51.7585 0 0 1 15.12 165.36 L33.43
								 165.36 A25.8793 25.8793 -180 0 0 37.46 161.25 L19.36 161.25 ZM16.46 197.66 L16.46 202.61 L48.49
								 202.61 L48.49 197.66 L16.46 197.66 ZM48.49 211.44 L48.49 206.09 L16.4 206.09 L16.4 211.44 L48.49
								 211.44 ZM50.81 168.89 L34.75 168.89 L34.75 172.98 L50.81 172.98 L50.81 168.89 ZM50.81 176.32 L34.75
								 176.32 L34.75 180.41 L50.81 180.41 L50.81 176.32 Z" class="st2"/>
				</g>
				<g id="shape5-11" v:mID="5" v:groupContext="shape" transform="translate(316.084,-59.3617)">
					<title>Sheet.5</title>
					<path d="M22.97 154.74 A107.229 107.229 0 0 1 15.83 169.3 L15.83 217.49 L10.82 217.49 L10.82 176.87 A68.1071
								 68.1071 0 0 1 2.96 186.21 A26.3433 26.3433 -180 0 0 0 181.05 A78.3696 78.3696 -180 0 0 18.03 153.19
								 L22.97 154.74 ZM65.97 179.21 L60.74 179.21 L60.74 199.59 L55.65 199.59 L55.65 195.83 L40.3 195.83
								 C38.52 204.16 33.73 212.16 22.35 217.74 A22.274 22.274 -180 0 0 18.88 213.71 C28.98 209.27 33.3
								 202.68 35.07 195.86 L22.97 195.86 L22.97 190.95 L35.98 190.95 A65.2693 65.2693 -180 0 0 36.41 182.74
								 L36.41 179.17 L19.03 179.17 L19.03 174.34 L36.41 174.34 L36.41 162.81 L23.92 162.81 L23.92 157.86
								 L60.68 157.86 L60.68 174.34 L65.91 174.34 L65.97 179.21 ZM55.65 179.21 L41.57 179.21 L41.57 182.78
								 A64.5911 64.5911 0 0 1 41.14 190.99 L55.65 190.99 L55.65 179.21 ZM41.57 174.34 L55.65 174.34 L55.65
								 162.81 L41.57 162.81 L41.57 174.34 Z" class="st2"/>
				</g>
				<g id="shape6-13" v:mID="6" v:groupContext="shape" transform="translate(387.993,-59.6651)">
					<title>Sheet.6</title>
					<path d="M24.59 195.56 C23.4 193.22 20.42 188.63 18.03 185.03 L18.03 217.74 L12.87 217.74 L12.87 186.51 A75.389
								 75.389 0 0 1 2.61 204.96 A23.452 23.452 -180 0 0 0 200.23 A72.6226 72.6226 -180 0 0 12.15 178.03
								 L0.98 178.03 L0.98 173.12 L12.87 173.12 L12.87 162.41 C9.6 163.06 6.28 163.63 3.18 164.04 A25.5045
								 25.5045 -180 0 0 1.62 159.95 C9.53 158.67 18.79 156.63 24.09 154.29 L27.29 158.47 A65.073 65.073
								 0 0 1 18.04 161.27 L18.04 173.12 L28.43 173.12 L28.43 178.07 L18.04 178.07 L18.04 179.33 C20.24
								 181.82 26.31 189.58 27.79 191.49 L24.59 195.56 ZM56.56 199.31 L56.56 217.74 L51.38 217.74 L51.38
								 200.16 L28.34 203.98 L27.5 198.95 L51.38 195.13 L51.38 153.28 L56.56 153.28 L56.56 194.33 L64.82
								 193.06 L65.61 197.86 L56.56 199.31 ZM42.91 189.9 A61.0394 61.0394 -180 0 0 30.41 179.58 L33.66 176.48
								 A61.0572 61.0572 0 0 1 46.31 186.44 L42.91 189.9 ZM44.46 171.34 A54.6499 54.6499 -180 0 0 33.21
								 161.29 L36.55 158.26 A52.1333 52.1333 0 0 1 48.06 167.77 L44.46 171.34 Z" class="st2"/>
				</g>
				<g id="shape7-15" v:mID="7" v:groupContext="shape" transform="translate(459.669,-59.4866)">
					<title>Sheet.7</title>
					<path d="M23.61 188.81 L15.13 191.35 L15.13 211.35 C15.13 214.33 14.37 215.74 12.53 216.6 C10.69 217.46 7.78
								 217.58 2.91 217.51 A17.1517 17.1517 -180 0 0 1.29 212.71 C4.68 212.71 7.71 212.71 8.57 212.71 C9.42
								 212.71 9.98 212.35 9.98 211.35 L9.98 192.92 L1.5 195.38 L0 190.22 C2.84 189.58 6.23 188.74 9.98
								 187.67 L9.98 172.27 L0.93 172.27 L0.93 167.32 L9.98 167.32 L9.98 153.17 L15.13 153.17 L15.13 167.32
								 L22.92 167.32 L22.92 172.27 L15.13 172.27 L15.13 186.26 C17.69 185.56 20.36 184.78 22.92 183.99
								 L23.61 188.81 ZM61.24 180.89 A51.7585 51.7585 0 0 1 46.96 204.09 A48.189 48.189 -180 0 0 65.2 213.21
								 A21.4173 21.4173 -180 0 0 61.81 217.74 A50.9375 50.9375 0 0 1 42.92 207.5 A65.0016 65.0016 0 0 1
								 22.85 217.6 A19.811 19.811 -180 0 0 20.01 212.87 A58.2373 58.2373 -180 0 0 39.18 203.95 A56.7916
								 56.7916 0 0 1 27.57 184.56 L27.79 184.56 L25.45 184.56 L25.45 179.62 L40.59 179.62 L40.59 169.09
								 L24.04 169.09 L24.04 164.2 L40.59 164.2 L40.59 153.1 L45.74 153.1 L45.74 164.2 L62.65 164.2 L62.65
								 169.09 L45.74 169.09 L45.74 179.62 L56.99 179.62 L57.84 179.41 L61.24 180.89 ZM32.68 184.46 A48.0105
								 48.0105 -180 0 0 43.08 200.72 A43.1024 43.1024 -180 0 0 54.47 184.46 L32.68 184.46 Z" class="st2"/>
				</g>
				<g id="shape8-17" v:mID="8" v:groupContext="shape" transform="translate(178.335,-8.53123)">
					<title>Sheet.8</title>
					<path d="M0 188.03 L11.12 188.03 A11.6724 11.6724 0 0 1 16.47 189.19 A10.1018 10.1018 0 0 1 20.15 192.38 A14.1354
								 14.1354 0 0 1 22.27 197.11 A24.5228 24.5228 0 0 1 22.27 208.71 A13.9748 13.9748 0 0 1 20.15 213.44
								 A10.1018 10.1018 0 0 1 16.47 216.58 A11.6724 11.6724 0 0 1 11.12 217.74 L0 217.74 L0 188.03 ZM4.69
								 213.55 L9.32 213.55 A10.4945 10.4945 -180 0 0 13.81 212.73 A6.60367 6.60367 -180 0 0 16.56 210.48
								 A8.60262 8.60262 -180 0 0 17.92 207.11 A24.8262 24.8262 -180 0 0 17.92 198.72 A8.60262 8.60262 -180
								 0 0 16.56 195.34 A6.60367 6.60367 -180 0 0 13.81 193.1 A10.4945 10.4945 -180 0 0 9.32 192.27 L4.69
								 192.27 L4.69 213.55 Z" class="st2"/>
				</g>
				<g id="shape9-19" v:mID="9" v:groupContext="shape" transform="translate(207.712,-8.69186)">
					<title>Sheet.9</title>
					<path d="M0 196.33 L4.02 196.33 L4.02 200.5 A4.83675 4.83675 0 0 1 4.77 198.72 A6.99633 6.99633 0 0 1 6.07 197.2
								 A6.26457 6.26457 0 0 1 7.85 196.09 A4.58688 4.58688 0 0 1 9.78 195.67 A6.65722 6.65722 0 0 1 10.82
								 195.67 L11.39 195.67 L11.39 200.27 L10.48 200.11 L9.55 200.11 A4.51549 4.51549 -180 0 0 7.5 200.59
								 A4.83675 4.83675 -180 0 0 5.82 202 A7.60315 7.60315 -180 0 0 4.69 204.32 A11.2084 11.2084 -180 0
								 0 4.28 207.48 L4.28 217.74 L0 217.74 L0 196.33 Z" class="st2"/>
				</g>
				<g id="shape10-21" v:mID="10" v:groupContext="shape" transform="translate(223.775,-7.88871)">
					<title>Sheet.10</title>
					<path d="M17.08 217.08 L12.85 217.08 L12.85 214.16 A6.21102 6.21102 0 0 1 10.51 216.76 A5.90761 5.90761 0 0 1
								 7.32 217.74 A6.69291 6.69291 0 0 1 1.78 215.64 A9.92336 9.92336 0 0 1 0 209.28 L0 195.52 L4.28 195.52
								 L4.28 208.8 A6.21102 6.21102 -180 0 0 5.27 212.8 A3.37323 3.37323 -180 0 0 8.01 213.98 A4.99738
								 4.99738 -180 0 0 10.26 213.51 A3.94436 3.94436 -180 0 0 11.73 212.28 A5.1937 5.1937 -180 0 0 12.55
								 210.5 A10.7087 10.7087 -180 0 0 12.78 208.16 L12.78 195.67 L17.08 195.67 L17.08 217.08 Z"
							class="st2"/>
				</g>
				<g id="shape11-23" v:mID="11" v:groupContext="shape" transform="translate(248.262,-8.54908)">
					<title>Sheet.11</title>
					<path d="M0.04 188.04 L4.28 188.04 L4.28 192.54 L0 192.54 L0.04 188.04 ZM0.04 196.25 L4.28 196.25 L4.28 217.74
								 L0 217.74 L0.04 196.25 Z" class="st2"/>
				</g>
				<g id="shape12-25" v:mID="12" v:groupContext="shape" transform="translate(259.221,-7.97795)">
					<title>Sheet.12</title>
					<path d="M19.17 217.17 L15.1 217.17 L15.1 214.24 A5.35433 5.35433 0 0 1 12.58 216.92 A7.69239 7.69239 0 0 1 9.01
								 217.74 A8.65617 8.65617 0 0 1 5 216.85 A8.31706 8.31706 0 0 1 2.25 214.42 A11.4226 11.4226 0 0 1
								 0.55 210.85 A17.6336 17.6336 0 0 1 0 206.32 A15.8131 15.8131 0 0 1 0.71 201.27 A10.5123 10.5123
								 0 0 1 2.61 197.7 A7.49606 7.49606 0 0 1 5.32 195.68 A7.9601 7.9601 0 0 1 8.42 195.02 A9.33438 9.33438
								 0 0 1 10.21 195.22 A7.13911 7.13911 0 0 1 11.99 195.83 A6.21102 6.21102 0 0 1 14.74 198.41 L14.74
								 187.47 L19.03 187.47 L19.17 217.17 ZM4.19 206.62 A11.6189 11.6189 -180 0 0 4.52 209.34 A7.65669
								 7.65669 -180 0 0 5.5 211.71 A5.1937 5.1937 -180 0 0 7.17 213.39 A4.56903 4.56903 -180 0 0 9.58 214.01
								 A4.46194 4.46194 -180 0 0 12.05 213.33 A5.24724 5.24724 -180 0 0 13.72 211.55 A8.06719 8.06719 -180
								 0 0 14.71 209.1 A11.8509 11.8509 -180 0 0 15.03 206.34 A9.40577 9.40577 -180 0 0 13.58 200.75 A4.58688
								 4.58688 -180 0 0 9.66 198.75 A4.65827 4.65827 -180 0 0 7.1 199.43 A5.6042 5.6042 -180 0 0 5.43 201.22
								 A7.49606 7.49606 -180 0 0 4.48 203.71 A13.832 13.832 -180 0 0 4.19 206.62 Z" class="st2"/>
				</g>
				<g id="shape13-27" v:mID="13" v:groupContext="shape" transform="translate(297.165,-8.54908)">
					<title>Sheet.13</title>
					<path d="M0 188.04 L21.77 188.04 L21.77 192.54 L13.24 192.54 L13.24 217.74 L8.53 217.74 L8.53 192.47 L0 192.47
								 L0 188.04 Z" class="st2"/>
				</g>
				<g id="shape14-29" v:mID="14" v:groupContext="shape" transform="translate(319.261,-7.96544)">
					<title>Sheet.14</title>
					<path d="M4.19 207.61 A9.15591 9.15591 -180 0 0 4.52 210.04 A6.30026 6.30026 -180 0 0 5.48 212.07 A4.64042 4.64042
								 -180 0 0 7.09 213.46 A4.8189 4.8189 -180 0 0 9.42 214 A4.76535 4.76535 -180 0 0 12.46 213.09 A5.46142
								 5.46142 -180 0 0 14.24 210.41 L18.29 210.41 A9.20945 9.20945 0 0 1 17.13 213.54 A8.69186 8.69186
								 0 0 1 15.13 215.86 A8.19213 8.19213 0 0 1 12.53 217.27 A10.0661 10.0661 0 0 1 5.39 216.91 A8.31706
								 8.31706 0 0 1 2.41 214.57 A10.0483 10.0483 0 0 1 0.62 211 A15.4205 15.4205 0 0 1 -0 206.41 A14.064
								 14.064 0 0 1 0.66 202.06 A11.0835 11.0835 0 0 1 2.53 198.49 A9.12021 9.12021 0 0 1 5.48 196.01 A8.33491
								 8.33491 0 0 1 9.41 195.08 A7.9601 7.9601 0 0 1 13.51 196.15 A9.17375 9.17375 0 0 1 16.54 198.97
								 A11.6903 11.6903 0 0 1 18.33 202.99 A13.7606 13.7606 0 0 1 18.62 207.68 L4.19 207.61 ZM14.21 204.49
								 A8.13858 8.13858 -180 0 0 13.76 202.31 A5.80052 5.80052 -180 0 0 12.8 200.53 A5.12231 5.12231 -180
								 0 0 11.28 199.28 A4.05144 4.05144 -180 0 0 9.32 198.79 A4.62257 4.62257 -180 0 0 5.75 200.44 A6.49659
								 6.49659 -180 0 0 4.69 202.22 A6.62152 6.62152 -180 0 0 4.27 204.47 L14.21 204.49 Z" class="st2"/>
				</g>
				<g id="shape15-31" v:mID="15" v:groupContext="shape" transform="translate(342.963,-7.90656)">
					<title>Sheet.15</title>
					<path d="M14.01 202.75 A4.65827 4.65827 -180 0 0 12.56 199.73 A4.42625 4.42625 -180 0 0 9.57 198.72 A5.92546
								 5.92546 -180 0 0 7.78 199.02 A4.28346 4.28346 -180 0 0 6 200.2 A6.90709 6.90709 -180 0 0 4.68 202.57
								 A12.8147 12.8147 -180 0 0 4.16 206.55 A12.4934 12.4934 -180 0 0 4.44 209.23 A7.71024 7.71024 -180
								 0 0 5.34 211.6 A4.97953 4.97953 -180 0 0 6.94 213.28 A4.44409 4.44409 -180 0 0 12.42 212.64 A6.31811
								 6.31811 -180 0 0 13.94 209.07 L18.22 209.07 A10.8336 10.8336 0 0 1 15.35 215.51 A8.28136 8.28136
								 0 0 1 9.39 217.74 A9.08451 9.08451 0 0 1 5.34 216.89 A8.56693 8.56693 0 0 1 2.39 214.49 A10.4588
								 10.4588 0 0 1 0.61 210.92 A15.3312 15.3312 0 0 1 0 206.5 A17.0982 17.0982 0 0 1 0.59 201.95 A10.9228
								 10.9228 0 0 1 2.37 198.27 A8.15643 8.15643 0 0 1 5.35 195.81 A9.13806 9.13806 0 0 1 9.55 194.9 A10.6016
								 10.6016 0 0 1 12.76 195.38 A8.10289 8.10289 0 0 1 15.47 196.83 A7.87087 7.87087 0 0 1 17.42 199.23
								 A8.92388 8.92388 0 0 1 18.31 202.7 L14.01 202.75 Z" class="st2"/>
				</g>
				<g id="shape16-33" v:mID="16" v:groupContext="shape" transform="translate(367.45,-8.53123)">
					<title>Sheet.16</title>
					<path d="M0.12 188.03 L4.43 188.03 L4.43 199.07 A6.63937 6.63937 0 0 1 6.76 196.63 A6.56798 6.56798 0 0 1 10.24
								 195.65 A6.88924 6.88924 0 0 1 15.3 197.43 A7.47822 7.47822 0 0 1 17.08 202.95 L17.08 217.74 L12.8
								 217.74 L12.8 204.18 A6.31811 6.31811 -180 0 0 11.82 200.48 A3.35538 3.35538 -180 0 0 9 199.34 A4.4084
								 4.4084 -180 0 0 7.03 199.77 A4.55118 4.55118 -180 0 0 5.57 200.98 A5.83622 5.83622 -180 0 0 4.64
								 202.77 A6.92493 6.92493 -180 0 0 4.3 204.98 L4.3 217.69 L0 217.69 L0.12 188.03 Z" class="st2"/>
				</g>
				<g id="shape17-35" v:mID="17" v:groupContext="shape" transform="translate(391.937,-8.58478)">
					<title>Sheet.17</title>
					<path d="M0.05 196.22 L4.12 196.22 L4.12 199.4 A7.60315 7.60315 0 0 1 6.68 196.59 A6.37165 6.37165 0 0 1 10.24
								 195.56 A6.88924 6.88924 0 0 1 15.3 197.34 A7.47822 7.47822 0 0 1 17.08 202.86 L17.08 217.65 L12.8
								 217.65 L12.8 204.23 A6.31811 6.31811 -180 0 0 11.82 200.54 A3.35538 3.35538 -180 0 0 9 199.4 A4.4084
								 4.4084 -180 0 0 7.03 199.82 A4.55118 4.55118 -180 0 0 5.57 201.04 A6.28241 6.28241 -180 0 0 4.62
								 202.82 A7.46037 7.46037 -180 0 0 4.28 205.04 L4.28 217.74 L0 217.74 L0.05 196.22 Z" class="st2"/>
				</g>
				<g id="shape18-37" v:mID="18" v:groupContext="shape" transform="translate(415.496,-7.90656)">
					<title>Sheet.18</title>
					<path d="M9.83 217.74 A9.61995 9.61995 0 0 1 5.68 216.89 A8.79895 8.79895 0 0 1 2.59 214.53 A10.4945 10.4945
								 0 0 1 0.66 210.96 A15.5633 15.5633 0 0 1 -0 206.37 A15.4026 15.4026 0 0 1 0.66 201.82 A10.4945 10.4945
								 0 0 1 2.59 198.25 A8.79895 8.79895 0 0 1 5.68 195.9 A10.4766 10.4766 0 0 1 13.97 195.9 A8.79895
								 8.79895 0 0 1 17.06 198.11 A10.4945 10.4945 0 0 1 18.99 201.68 A15.4026 15.4026 0 0 1 19.65 206.23
								 A15.5633 15.5633 0 0 1 18.99 210.82 A10.4945 10.4945 0 0 1 17.06 214.39 A8.79895 8.79895 0 0 1 13.97
								 216.74 A9.6021 9.6021 0 0 1 9.83 217.74 ZM9.83 213.99 A4.56903 4.56903 -180 0 0 12.31 213.32 A5.58635
								 5.58635 -180 0 0 14.1 211.53 A8.06719 8.06719 -180 0 0 15.08 209.09 A11.8509 11.8509 -180 0 0 15.4
								 206.32 A12.0472 12.0472 -180 0 0 15.08 203.57 A7.88871 7.88871 -180 0 0 14.1 201.13 A5.72913 5.72913
								 -180 0 0 12.31 199.34 A5.01522 5.01522 -180 0 0 7.34 199.34 A5.72913 5.72913 -180 0 0 5.55 201.13
								 A7.88871 7.88871 -180 0 0 4.57 203.57 A12.0472 12.0472 -180 0 0 4.25 206.32 A11.8509 11.8509 -180
								 0 0 4.57 209.09 A8.06719 8.06719 -180 0 0 5.55 211.53 A5.58635 5.58635 -180 0 0 7.34 213.32 A4.58688
								 4.58688 -180 0 0 9.83 213.94 L9.83 213.99 Z" class="st2"/>
				</g>
				<g id="shape19-39" v:mID="19" v:groupContext="shape" transform="translate(441.732,-8.54908)">
					<title>Sheet.19</title>
					<rect x="0" y="188.044" width="4.30131" height="29.6987" class="st2"/>
				</g>
				<g id="shape20-41" v:mID="20" v:groupContext="shape" transform="translate(452.512,-7.90656)">
					<title>Sheet.20</title>
					<path d="M9.82 217.74 A9.6021 9.6021 0 0 1 5.68 216.89 A8.79895 8.79895 0 0 1 2.59 214.53 A10.4945 10.4945 0
								 0 1 0.66 210.96 A15.5633 15.5633 0 0 1 -0 206.37 A15.4026 15.4026 0 0 1 0.66 201.82 A10.4945 10.4945
								 0 0 1 2.59 198.25 A8.79895 8.79895 0 0 1 5.68 195.9 A10.4766 10.4766 0 0 1 13.97 195.9 A8.79895
								 8.79895 0 0 1 17.06 198.11 A10.4945 10.4945 0 0 1 18.99 201.68 A15.4026 15.4026 0 0 1 19.65 206.23
								 A15.5633 15.5633 0 0 1 18.99 210.82 A10.4945 10.4945 0 0 1 17.06 214.39 A8.79895 8.79895 0 0 1 13.97
								 216.74 A9.61995 9.61995 0 0 1 9.82 217.74 ZM9.82 213.99 A4.58688 4.58688 -180 0 0 12.31 213.32 A5.58635
								 5.58635 -180 0 0 14.1 211.53 A8.06719 8.06719 -180 0 0 15.08 209.09 A11.8509 11.8509 -180 0 0 15.4
								 206.32 A12.0472 12.0472 -180 0 0 15.08 203.57 A7.88871 7.88871 -180 0 0 14.1 201.13 A5.72913 5.72913
								 -180 0 0 12.31 199.34 A5.01522 5.01522 -180 0 0 7.34 199.34 A5.72913 5.72913 -180 0 0 5.55 201.13
								 A7.47822 7.47822 -180 0 0 4.57 203.57 A12.0472 12.0472 -180 0 0 4.25 206.32 A11.8509 11.8509 -180
								 0 0 4.57 209.09 A7.63885 7.63885 -180 0 0 5.55 211.53 A5.58635 5.58635 -180 0 0 7.34 213.32 A4.56903
								 4.56903 -180 0 0 9.82 213.94 L9.82 213.99 Z" class="st2"/>
				</g>
				<g id="shape21-43" v:mID="21" v:groupContext="shape" transform="translate(477.624,-0.0178478)">
					<title>Sheet.21</title>
					<path d="M18.9 208.07 A8.54908 8.54908 0 0 1 9.35 217.74 A14.064 14.064 0 0 1 6.39 217.42 A8.24567 8.24567 0
								 0 1 3.69 216.28 A6.69291 6.69291 0 0 1 1.59 214.23 A6.94278 6.94278 0 0 1 0.61 211.05 L4.89 211.05
								 A3.98005 3.98005 -180 0 0 5.53 212.67 A3.28399 3.28399 -180 0 0 6.6 213.66 A3.90866 3.90866 -180
								 0 0 7.98 214.12 A11.2976 11.2976 -180 0 0 9.57 214.23 A4.72966 4.72966 -180 0 0 13.37 212.8 A6.13963
								 6.13963 -180 0 0 14.56 208.71 L14.56 205.43 A6.94278 6.94278 0 0 1 12.1 208.21 A6.05039 6.05039
								 0 0 1 8.73 209.21 A8.0315 8.0315 0 0 1 4.77 208.32 A7.621 7.621 0 0 1 2.05 205.86 A10.7087 10.7087
								 0 0 1 0.5 202.29 A18.0262 18.0262 0 0 1 0 197.91 A13.832 13.832 0 0 1 0.61 193.77 A10.7087 10.7087
								 0 0 1 2.39 190.35 A8.15643 8.15643 0 0 1 5.16 187.95 A7.63885 7.63885 0 0 1 8.85 187.06 A6.88924
								 6.88924 0 0 1 12.24 187.92 A5.6042 5.6042 0 0 1 14.62 190.61 L14.62 187.65 L18.9 187.65 L18.9 208.07
								 ZM9.39 205.45 A4.39055 4.39055 -180 0 0 11.82 204.8 A5.15801 5.15801 -180 0 0 13.44 203.02 A7.85302
								 7.85302 -180 0 0 14.33 200.59 A12.6719 12.6719 -180 0 0 14.62 197.86 A11.9045 11.9045 -180 0 0 14.31
								 195.2 A7.76378 7.76378 -180 0 0 13.4 192.9 A4.92598 4.92598 -180 0 0 11.78 191.31 A4.7832 4.7832
								 -180 0 0 9.39 190.74 A4.19423 4.19423 -180 0 0 6.98 191.4 A5.05092 5.05092 -180 0 0 5.41 193.18
								 A7.83517 7.83517 -180 0 0 4.53 195.61 A13.7606 13.7606 -180 0 0 4.27 198.29 A11.4404 11.4404 -180
								 0 0 4.57 200.89 A8.17428 8.17428 -180 0 0 5.5 203.18 A5.24724 5.24724 -180 0 0 7.07 204.8 A4.21207
								 4.21207 -180 0 0 9.39 205.46 L9.39 205.45 Z" class="st2"/>
				</g>
				<g id="shape22-45" v:mID="22" v:groupContext="shape" transform="translate(501.54,0)">
					<title>Sheet.22</title>
					<path d="M0 187.63 L4.69 187.63 L9.78 203.7 L14.71 187.63 L19.19 187.63 L11.69 210.37 C11.33 211.34 10.99 212.26
								 10.66 213.16 A10.4588 10.4588 0 0 1 9.42 215.51 A5.35433 5.35433 0 0 1 4.8 217.74 A16.4556 16.4556
								 0 0 1 1.84 217.49 L1.84 213.5 L2.86 213.67 A4.67612 4.67612 -180 0 0 3.87 213.78 A3.42677 3.42677
								 -180 0 0 5.1 213.58 A2.14173 2.14173 -180 0 0 5.93 212.98 A4.35486 4.35486 -180 0 0 6.46 212.03
								 A7.88871 7.88871 -180 0 0 6.87 210.78 L7.37 209.12 L0 187.63 Z" class="st2"/>
				</g>
			</g>
		</g>
	</g>
</svg>
