<?xml version="1.0" standalone="no"?><!DOCTYPE svg PUBLIC "-//W3C//DTD SVG 1.1//EN" "http://www.w3.org/Graphics/SVG/1.1/DTD/svg11.dtd"><svg t="1613626066722" class="icon" viewBox="0 0 1024 1024" version="1.1" xmlns="http://www.w3.org/2000/svg" p-id="9717" xmlns:xlink="http://www.w3.org/1999/xlink" width="200" height="200"><defs><style type="text/css"></style></defs><path d="M667.888941 741.074824a29.756235 29.756235 0 0 0-32.707765 27.346823 30.117647 30.117647 0 0 0 27.286589 32.647529c198.475294 17.769412 269.613176 61.680941 273.046588 74.932706-6.866824 27.949176-163.779765 82.281412-427.008 82.281412-263.168 0-420.020706-54.332235-426.887529-81.558588 3.312941-13.492706 71.68-56.199529 262.26447-74.691765a30.117647 30.117647 0 0 0 27.105882-32.828235 31.021176 31.021176 0 0 0-32.88847-27.105882c-118.241882 11.444706-316.656941 44.092235-316.656941 134.26447 0 112.218353 306.176 142.155294 487.062588 142.155294 180.946824 0 487.183059-29.936941 487.183059-142.155294 0-92.220235-205.402353-124.325647-327.800471-135.28847M508.566588 311.055059a82.281412 82.281412 0 0 1 0 164.442353 82.281412 82.281412 0 0 1 0-164.442353m0 224.677647a142.637176 142.637176 0 0 0 142.456471-142.456471 142.637176 142.637176 0 0 0-142.456471-142.45647 142.576941 142.576941 0 0 0-142.396235 142.45647 142.576941 142.576941 0 0 0 142.396235 142.456471" fill="#69becb" p-id="9718"></path><path d="M325.150118 161.912471A287.503059 287.503059 0 0 1 509.409882 95.774118c18.070588 0 36.442353 1.686588 54.693647 5.12 142.155294 26.443294 239.375059 153.419294 231.183059 301.959529-7.589647 136.914824-93.364706 210.823529-176.188235 282.262588-42.345412 36.502588-82.944 71.499294-110.471529 113.121883-27.527529-41.622588-68.126118-76.559059-110.47153-113.121883-86.859294-74.932706-176.790588-152.335059-176.790588-302.260706 0-85.594353 37.827765-166.128941 103.785412-220.943058z m33.671529 568.801882c48.609882 41.923765 94.509176 81.498353 113.965177 127.337412a39.514353 39.514353 0 0 0 36.382117 24.154353h0.180706a37.647059 37.647059 0 0 0 34.755765-23.250824v-0.060235c19.154824-46.140235 65.415529-85.955765 114.326588-128.180706 83.727059-72.222118 187.934118-162.093176 196.969412-324.547765 9.938824-179.139765-107.941647-332.438588-280.274824-364.544a349.304471 349.304471 0 0 0-288.527059 73.968941 346.654118 346.654118 0 0 0-125.470117 267.264c0 177.513412 109.628235 271.962353 197.692235 347.858824z" fill="#69becb" p-id="9719"></path></svg>