<?xml version="1.0" standalone="no"?><!DOCTYPE svg PUBLIC "-//W3C//DTD SVG 1.1//EN" "http://www.w3.org/Graphics/SVG/1.1/DTD/svg11.dtd"><svg t="1613626060270" class="icon" viewBox="0 0 1024 1024" version="1.1" xmlns="http://www.w3.org/2000/svg" p-id="9576" xmlns:xlink="http://www.w3.org/1999/xlink" width="200" height="200"><defs><style type="text/css"></style></defs><path d="M894.795294 960.512a65.054118 65.054118 0 0 1-56.621176-34.334118 63.849412 63.849412 0 0 1-9.276236-31.623529c0-11.685647 3.855059-22.106353 9.216-31.623529 5.903059-10.541176 14.456471-19.094588 25.057883-25.057883 9.517176-5.360941 19.937882-9.216 31.623529-9.216 11.745882 0 22.106353 3.855059 31.683765 9.216 19.998118 11.324235 34.273882 32.045176 34.273882 56.681412 0 36.382118-29.635765 65.957647-65.957647 65.957647m-124.807529-97.581176H254.012235a129.084235 129.084235 0 0 0-91.919059-92.762353V253.891765a129.024 129.024 0 0 0 92.521412-91.979294h515.734588c11.926588 45.176471 47.465412 80.474353 92.822589 92.099764v515.734589a129.084235 129.084235 0 0 0-93.184 93.184m-640.783059 97.581176a66.078118 66.078118 0 0 1-65.957647-65.957647c0-25.178353 14.757647-46.381176 35.538823-57.464471a63.849412 63.849412 0 0 1 30.418824-8.372706c12.227765 0 23.070118 4.216471 32.88847 10.059295 9.999059 5.963294 18.070588 14.034824 23.792942 24.154353 5.300706 9.517176 9.216 19.877647 9.216 31.623529s-3.855059 22.166588-9.216 31.623529c-11.264 20.118588-32.045176 34.334118-56.681412 34.334118M64.271059 129.264941c0-36.382118 29.515294-65.957647 65.897412-65.957647 25.118118 0 46.381176 14.637176 57.404235 35.358118 4.999529 9.276235 8.553412 19.395765 8.553412 30.599529 0 12.107294-4.216471 22.889412-9.999059 32.707765-5.842824 9.878588-13.914353 18.010353-24.094118 23.67247a63.367529 63.367529 0 0 1-31.86447 9.517177c-11.565176 0-21.865412-3.794824-31.322353-9.035294a65.234824 65.234824 0 0 1-34.575059-56.862118m773.12-30.599529c11.143529-20.720941 32.346353-35.358118 57.404235-35.358118 36.321882 0 65.957647 29.515294 65.957647 65.957647 0 24.696471-14.275765 45.357176-34.334117 56.621177-9.517176 5.360941-19.877647 9.276235-31.62353 9.276235-11.685647 0-22.106353-3.915294-31.623529-9.216a65.656471 65.656471 0 0 1-24.335059-23.973647 64.090353 64.090353 0 0 1-9.938824-32.707765c0-11.203765 3.553882-21.323294 8.432942-30.599529m89.148235 671.141647V254.012235A129.084235 129.084235 0 0 0 1024 129.204706 129.325176 129.325176 0 0 0 894.795294 0c-60.656941 0-111.314824 42.164706-125.168941 98.605176H255.337412A129.084235 129.084235 0 0 0 130.108235 0 129.325176 129.325176 0 0 0 1.024 129.204706c0 60.295529 41.743059 110.772706 97.761882 124.867765v515.312941A129.144471 129.144471 0 0 0 0 894.494118c0 71.318588 57.946353 129.264941 129.204706 129.264941 60.235294 0 110.592-41.682824 124.807529-97.581177h515.97553a129.024 129.024 0 0 0 124.807529 97.520942A129.325176 129.325176 0 0 0 1024 894.494118c0-60.235294-41.622588-110.652235-97.581176-124.80753" fill="#5CBCCB" p-id="9577"></path><path d="M352.557176 309.970824a30.117647 30.117647 0 0 0-42.586352 42.586352l326.77647 326.776471a30.238118 30.238118 0 0 0 42.586353 0 30.057412 30.057412 0 0 0 0-42.586353L352.557176 309.970824z" fill="#5CBCCB" p-id="9578"></path></svg>