<?xml version="1.0" standalone="no"?><!DOCTYPE svg PUBLIC "-//W3C//DTD SVG 1.1//EN" "http://www.w3.org/Graphics/SVG/1.1/DTD/svg11.dtd"><svg t="1605077443385" class="icon" viewBox="0 0 1024 1024" version="1.1" xmlns="http://www.w3.org/2000/svg" p-id="7077" xmlns:xlink="http://www.w3.org/1999/xlink" width="200" height="200"><defs><style type="text/css"></style></defs><path d="M89.6 620.8c-12.8 0-25.6-12.8-25.6-25.6V198.4c0-12.8 12.8-25.6 25.6-25.6h281.6c12.8 0 25.6 12.8 25.6 25.6v25.6h57.6v-25.6c0-44.8-38.4-83.2-83.2-83.2H89.6C38.4 115.2 0 153.6 0 198.4v396.8c0 44.8 38.4 83.2 83.2 83.2h198.4v-57.6h-192z" p-id="7078" fill="#515151"></path><path d="M934.4 339.2h-198.4v-25.6c0-44.8-38.4-83.2-83.2-83.2H371.2c-51.2-6.4-83.2 32-83.2 83.2V710.4c0 44.8 38.4 83.2 83.2 83.2h198.4v25.6c0 44.8 38.4 83.2 83.2 83.2h281.6c44.8 0 83.2-38.4 83.2-83.2V422.4c6.4-44.8-32-83.2-83.2-83.2z m-563.2 396.8c-12.8 0-25.6-12.8-25.6-25.6V313.6c0-12.8 12.8-25.6 25.6-25.6h281.6c12.8 0 25.6 12.8 25.6 25.6v25.6h-25.6c-44.8 0-83.2 38.4-83.2 83.2v313.6H371.2z m595.2 83.2c0 12.8-12.8 25.6-25.6 25.6h-281.6c-12.8 0-25.6-12.8-25.6-25.6V422.4c0-12.8 12.8-25.6 25.6-25.6h281.6c12.8 0 25.6 12.8 25.6 25.6v396.8z" p-id="7079" fill="#515151"></path></svg>