<?xml version="1.0" standalone="no"?><!DOCTYPE svg PUBLIC "-//W3C//DTD SVG 1.1//EN" "http://www.w3.org/Graphics/SVG/1.1/DTD/svg11.dtd"><svg t="1613977332699" class="icon" viewBox="0 0 1024 1024" version="1.1" xmlns="http://www.w3.org/2000/svg" p-id="14939" xmlns:xlink="http://www.w3.org/1999/xlink" width="200" height="200"><defs><style type="text/css"></style></defs><path d="M512 1024C229.2224 1024 0 794.7776 0 512S229.2224 0 512 0s512 229.2224 512 512-229.2224 512-512 512z m0-439.6032l108.5952 108.6464a204.6976 204.6976 0 0 0 53.0432-197.888l58.6752-58.6752a76.8 76.8 0 0 0 87.3984-15.0016l18.1248-18.0736a51.2 51.2 0 0 0 0-72.448l-144.7936-144.7936a51.2 51.2 0 0 0-72.448 0l-18.0736 18.1248a76.8 76.8 0 0 0-15.0016 87.3984l-58.6752 58.6752a204.6976 204.6976 0 0 0-197.888 53.0432L439.6032 512 258.56 693.0432a51.2 51.2 0 0 0 72.3968 72.3968L512 584.3968z" p-id="14940" fill="#69becb"></path></svg>