<?xml version="1.0" encoding="UTF-8"?>
<svg width="32px" height="32px" viewBox="0 0 32 32" version="1.1" xmlns="http://www.w3.org/2000/svg" xmlns:xlink="http://www.w3.org/1999/xlink">
    <title>两格电量</title>
    <g id="Page-1" stroke="none" stroke-width="1" fill="none" fill-rule="evenodd">
        <g id="电池电量" transform="translate(-691.000000, -310.000000)" fill-rule="nonzero">
            <g id="少电" transform="translate(707.000000, 326.500000) scale(-1, 1) translate(-707.000000, -326.500000) translate(691.000000, 316.000000)">
                <rect id="Rectangle-path" fill="#000000" opacity="0" x="0" y="0" width="20.3149411" height="20.3149411"></rect>
                <path d="M31.3791099,0 L3.87184643,0 C3.53349805,0 3.2592125,0.274285553 3.2592125,0.612633929 L3.2592125,4.43546965 L0.612633929,4.43546965 C0.274285553,4.43546965 0,4.7097552 0,5.04810358 L0,15.2668375 C0,15.6051859 0.274285553,15.8794715 0.612633929,15.8794715 L3.2592125,15.8794715 L3.2592125,19.7023072 C3.2592125,20.0406556 3.53349805,20.3149411 3.87184643,20.3149411 L31.3791099,20.3149411 C31.7174582,20.3149411 31.9917438,20.0406556 31.9917438,19.7023072 L31.9917438,0.612633929 C31.9917438,0.274285553 31.7174582,0 31.3791099,0 L31.3791099,0 Z M1.22526786,14.7032143 L1.22526786,5.66073751 L3.2592125,5.66073751 L3.2592125,14.7032143 L1.22526786,14.7032143 Z M30.7664759,19.138684 L4.48448036,19.138684 L4.48448036,1.22526786 L30.7664759,1.22526786 L30.7664759,19.138684 Z M20.3762045,16.8841911 L15.3403536,16.8841911 L15.3403536,3.49201339 L20.3762045,3.49201339 L20.3762045,16.8841911 Z M28.2669295,16.8841911 L23.2800893,16.8841911 L23.2800893,3.49201339 L28.3159402,3.49201339 L28.2669295,16.8841911 Z" id="Shape" fill="#F3B202"></path>
            </g>
        </g>
    </g>
</svg>