<?xml version="1.0" standalone="no"?><!DOCTYPE svg PUBLIC "-//W3C//DTD SVG 1.1//EN" "http://www.w3.org/Graphics/SVG/1.1/DTD/svg11.dtd"><svg t="1614065021468" class="icon" viewBox="0 0 1024 1024" version="1.1" xmlns="http://www.w3.org/2000/svg" p-id="21094" xmlns:xlink="http://www.w3.org/1999/xlink" width="200" height="200"><defs><style type="text/css"></style></defs><path d="M803.415829 1023.948803H126.073696c-62.20489 0-112.839158-49.354332-112.839158-109.972102V180.982951c0-60.617769 50.685466-109.920904 112.890356-109.920904h526.821659c20.786161 0 37.578921 16.383181 37.578921 36.60617a37.118144 37.118144 0 0 1-37.630119 36.657367H126.073696a37.220539 37.220539 0 0 0-37.578921 36.657367v732.99375c0 20.274186 16.895155 36.657367 37.630119 36.657367h677.342133c20.734963 0 37.578921-16.383181 37.578921-36.657367V327.663617c0-20.274186 16.843958-36.657367 37.630118-36.657367 20.837358 0 37.630118 16.383181 37.630119 36.657367v586.364282c0 60.617769-50.685466 109.972101-112.890356 109.972101zM582.345283 437.533323a38.039698 38.039698 0 0 1-26.622669-10.751462 35.940603 35.940603 0 0 1 0-51.81181L929.771111 10.751462a38.295685 38.295685 0 0 1 53.194141 0 35.940603 35.940603 0 0 1 0 51.81181l-373.946103 364.218589a37.886106 37.886106 0 0 1-26.622669 10.751462z m-155.179441 0h-225.780711a37.169342 37.169342 0 0 1-37.630119-36.657367c0-20.222989 16.895155-36.657367 37.630119-36.657367h225.780711c20.734963 0 37.578921 16.434378 37.578921 36.657367 0 20.274186-16.843958 36.657367-37.578921 36.657367z m225.780711 219.893006h-451.561422a37.118144 37.118144 0 0 1-37.630119-36.60617c0-20.274186 16.895155-36.657367 37.630119-36.657367h451.561422c20.786161 0 37.578921 16.383181 37.578921 36.657367a37.118144 37.118144 0 0 1-37.630119 36.60617z" p-id="21095" fill="#515151"></path></svg>