<?xml version="1.0" encoding="UTF-8" standalone="no"?>
<!DOCTYPE svg PUBLIC "-//W3C//DTD SVG 1.1//EN" "http://www.w3.org/Graphics/SVG/1.1/DTD/svg11.dtd">
<!-- Generated by Microsoft Visio, SVG Export 网关图标.svg Page-1 -->
<svg xmlns="http://www.w3.org/2000/svg" xmlns:xlink="http://www.w3.org/1999/xlink" xmlns:ev="http://www.w3.org/2001/xml-events"
		xmlns:v="http://schemas.microsoft.com/visio/2003/SVGExtensions/" width="7.6075in" height="7.565in"
		viewBox="0 0 547.74 544.68" xml:space="preserve" color-interpolation-filters="sRGB" class="st2">
	<v:documentProperties v:langID="2052" v:metric="true" v:viewMarkup="false"/>

	<style type="text/css">
	<![CDATA[
		.st1 {fill:#1d90dd;stroke:none;stroke-linecap:butt;stroke-width:30.6}
		.st2 {fill:none;fill-rule:evenodd;font-size:12px;overflow:visible;stroke-linecap:square;stroke-miterlimit:3}
	]]>
	</style>

	<g v:mID="0" v:index="1" v:groupContext="foregroundPage">
		<title>Page-1</title>
		<v:pageProperties v:drawingScale="1" v:pageScale="1" v:drawingUnits="19" v:shadowOffsetX="9" v:shadowOffsetY="-9"/>
		<g id="group1-1" transform="translate(30.6,-30.6)" v:mID="1" v:groupContext="group">
			<title>Sheet.1</title>
			<g id="shape2-2" v:mID="2" v:groupContext="shape">
				<title>Sheet.2</title>
				<path d="M437.58 544.68 L48.96 544.68 C21.42 544.68 0 523.26 0 495.72 L0 428.4 C0 400.86 21.42 379.44 48.96 379.44
							 L437.58 379.44 C465.12 379.44 486.54 400.86 486.54 428.4 L486.54 498.78 C486.54 523.26 465.12 544.68
							 437.58 544.68 ZM48.96 410.04 C39.78 410.04 30.6 419.22 30.6 428.4 L30.6 498.78 C30.6 507.96 39.78 517.14
							 48.96 517.14 L437.58 517.14 C446.76 517.14 455.94 507.96 455.94 498.78 L455.94 428.4 C455.94 419.22
							 446.76 410.04 437.58 410.04 L48.96 410.04 Z" class="st1"/>
			</g>
			<g id="shape3-4" v:mID="3" v:groupContext="shape" transform="translate(153,-134.64)">
				<title>Sheet.3</title>
				<path d="M79.56 544.68 L0 544.68 L0 391.68 C0 370.26 18.36 351.9 39.78 351.9 C61.2 351.9 79.56 370.26 79.56 391.68
							 L79.56 544.68 ZM30.6 514.08 L45.9 514.08 L45.9 394.74 C45.9 391.68 42.84 385.56 36.72 385.56 C36.72
							 385.56 30.6 388.62 30.6 394.74 L30.6 514.08 Z" class="st1"/>
			</g>
			<g id="shape4-6" v:mID="4" v:groupContext="shape" transform="translate(257.04,-134.64)">
				<title>Sheet.4</title>
				<path d="M76.5 544.68 L0 544.68 L0 391.68 C0 370.26 18.36 354.96 39.78 354.96 C61.2 354.96 79.56 373.32 79.56 394.74
							 L79.56 544.68 L76.5 544.68 ZM30.6 514.08 L45.9 514.08 L45.9 394.74 C45.9 385.56 30.6 385.56 30.6 394.74
							 L30.6 514.08 Z" class="st1"/>
			</g>
			<g id="shape5-8" v:mID="5" v:groupContext="shape" transform="translate(52.02,-134.64)">
				<title>Sheet.5</title>
				<path d="M79.56 544.68 L0 544.68 L0 391.68 C0 370.26 18.36 354.96 39.78 354.96 L39.78 370.26 L39.78 354.96 C61.2
							 354.96 79.56 373.32 79.56 394.74 L79.56 544.68 ZM30.6 514.08 L45.9 514.08 L45.9 394.74 C45.9 391.68
							 42.84 385.56 36.72 385.56 C36.72 385.56 36.72 385.56 36.72 385.56 C33.66 385.56 27.54 388.62 27.54 394.74
							 L27.54 514.08 L30.6 514.08 Z" class="st1"/>
			</g>
			<g id="shape6-10" v:mID="6" v:groupContext="shape" transform="translate(361.08,-134.64)">
				<title>Sheet.6</title>
				<path d="M76.5 544.68 L0 544.68 L0 391.68 C0 382.5 3.06 370.26 12.24 364.14 C21.42 358.02 27.54 351.9 39.78 351.9
							 L39.78 367.2 L39.78 354.96 C61.2 354.96 79.56 373.32 79.56 394.74 L79.56 544.68 L76.5 544.68 ZM27.54
							 514.08 L42.84 514.08 L42.84 394.74 C42.84 391.68 39.78 385.56 33.66 385.56 C30.6 385.56 30.6 385.56
							 27.54 388.62 C27.54 388.62 24.48 391.68 24.48 394.74 L24.48 514.08 L27.54 514.08 Z" class="st1"/>
			</g>
			<g id="shape7-12" v:mID="7" v:groupContext="shape" transform="translate(61.2,-64.26)">
				<title>Sheet.7</title>
				<ellipse cx="15.3" cy="529.38" rx="15.3" ry="15.3" class="st1"/>
			</g>
			<g id="shape8-14" v:mID="8" v:groupContext="shape" transform="translate(110.16,-64.26)">
				<title>Sheet.8</title>
				<ellipse cx="15.3" cy="529.38" rx="15.3" ry="15.3" class="st1"/>
			</g>
			<g id="shape9-16" v:mID="9" v:groupContext="shape" transform="translate(156.06,-64.26)">
				<title>Sheet.9</title>
				<ellipse cx="15.3" cy="529.38" rx="15.3" ry="15.3" class="st1"/>
			</g>
			<g id="shape10-18" v:mID="10" v:groupContext="shape" transform="translate(177.48,-342.72)">
				<title>Sheet.10</title>
				<path d="M15.3 544.68 C6.12 544.68 0 541.62 0 532.44 C0 514.08 3.06 495.72 15.3 483.48 C27.54 471.24 42.84 462.06
							 61.2 459 C97.92 455.94 131.58 483.48 134.64 520.2 C134.64 523.26 134.64 526.32 134.64 529.38 C134.64
							 538.56 125.46 544.68 119.34 544.68 C110.16 544.68 104.04 535.5 104.04 529.38 C104.04 526.32 104.04 526.32
							 104.04 523.26 C104.04 514.08 97.92 504.9 91.8 498.78 C85.68 492.66 73.44 489.6 64.26 489.6 C55.08 489.6
							 45.9 495.72 39.78 501.84 C30.6 511.02 27.54 520.2 30.6 529.38 C30.6 538.56 24.48 544.68 15.3 544.68
							 C15.3 544.68 15.3 544.68 15.3 544.68 Z" class="st1"/>
			</g>
			<g id="shape11-20" v:mID="11" v:groupContext="shape" transform="translate(119.34,-342.72)">
				<title>Sheet.11</title>
				<path d="M15.3 544.68 C6.12 544.68 0 538.56 0 529.38 C0 459 55.08 403.92 125.46 403.92 C125.46 403.92 125.46 403.92
							 125.46 403.92 C159.12 403.92 189.72 416.16 214.2 440.64 C238.68 465.12 250.92 495.72 250.92 529.38 C250.92
							 538.56 244.8 544.68 235.62 544.68 C226.44 544.68 220.32 538.56 220.32 529.38 C220.32 504.9 211.14 480.42
							 192.78 462.06 C174.42 443.7 149.94 437.58 125.46 437.58 C125.46 437.58 125.46 437.58 125.46 437.58 C73.44
							 437.58 30.6 480.42 30.6 532.44 C30.6 538.56 24.48 544.68 15.3 544.68 Z" class="st1"/>
			</g>
		</g>
	</g>
</svg>
