<?xml version="1.0" encoding="UTF-8" standalone="no"?>
<!DOCTYPE svg PUBLIC "-//W3C//DTD SVG 1.1//EN" "http://www.w3.org/Graphics/SVG/1.1/DTD/svg11.dtd">
<!-- Generated by Microsoft Visio, SVG Export 设备图标.svg Page-1 -->
<svg xmlns="http://www.w3.org/2000/svg" xmlns:xlink="http://www.w3.org/1999/xlink" xmlns:ev="http://www.w3.org/2001/xml-events"
		xmlns:v="http://schemas.microsoft.com/visio/2003/SVGExtensions/" width="7.055in" height="7.65in" viewBox="0 0 507.96 550.8"
		xml:space="preserve" color-interpolation-filters="sRGB" class="st2">
	<v:documentProperties v:langID="2052" v:metric="true" v:viewMarkup="false"/>

	<style type="text/css">
	<![CDATA[
		.st1 {fill:#69becb;stroke:none;stroke-linecap:butt;stroke-width:30.6}
		.st2 {fill:none;fill-rule:evenodd;font-size:12px;overflow:visible;stroke-linecap:square;stroke-miterlimit:3}
	]]>
	</style>

	<g v:mID="0" v:index="1" v:groupContext="foregroundPage">
		<title>Page-1</title>
		<v:pageProperties v:drawingScale="1" v:pageScale="1" v:drawingUnits="19" v:shadowOffsetX="9" v:shadowOffsetY="-9"/>
		<g id="group7-1" transform="translate(30.6,-30.6)" v:mID="7" v:groupContext="group">
			<title>Sheet.7</title>
			<g id="shape1-2" v:mID="1" v:groupContext="shape" transform="translate(76.5,0)">
				<title>Sheet.1</title>
				<path d="M220.32 91.8 C247.86 91.8 269.28 113.22 269.28 140.76 L269.28 471.24 C269.28 498.78 247.86 520.2 220.32
							 520.2 L79.56 520.2 C52.02 520.2 30.6 498.78 30.6 471.24 L30.6 140.76 C30.6 113.22 52.02 91.8 79.56 91.8
							 L220.32 91.8 ZM220.32 61.2 L79.56 61.2 C33.66 61.2 0 97.92 0 140.76 L0 471.24 C0 514.08 36.72 550.8
							 79.56 550.8 L220.32 550.8 C263.16 550.8 299.88 514.08 299.88 471.24 L299.88 140.76 C299.88 97.92 263.16
							 61.2 220.32 61.2 Z" class="st1"/>
			</g>
			<g id="shape2-4" v:mID="2" v:groupContext="shape" transform="translate(0,-97.92)">
				<title>Sheet.2</title>
				<path d="M79.56 550.8 L30.6 532.44 C12.24 526.32 0 511.02 0 492.66 L0 318.24 C0 296.82 12.24 281.52 30.6 275.4 L79.56
							 257.04 L88.74 284.58 L39.78 302.94 C33.66 306 30.6 312.12 27.54 318.24 L27.54 489.6 C27.54 495.72 33.66
							 501.84 39.78 501.84 L91.8 520.2 L79.56 550.8 Z" class="st1"/>
			</g>
			<g id="shape3-6" v:mID="3" v:groupContext="shape" transform="translate(358.02,-97.92)">
				<title>Sheet.3</title>
				<path d="M12.24 550.8 L3.06 523.26 L52.02 504.9 C58.14 501.84 64.26 498.78 64.26 489.6 L64.26 318.24 C64.26 312.12
							 58.14 306 52.02 306 L0 287.64 L9.18 260.1 L58.14 278.46 C76.5 284.58 88.74 299.88 88.74 318.24 L88.74
							 492.66 C88.74 514.08 73.44 529.38 55.08 535.5 L12.24 550.8 Z" class="st1"/>
			</g>
			<g id="shape4-8" v:mID="4" v:groupContext="shape" transform="translate(156.06,-333.54)">
				<title>Sheet.4</title>
				<path d="M125.46 550.8 L15.3 550.8 C6.12 550.8 0 544.68 0 535.5 C0 526.32 6.12 520.2 15.3 520.2 L128.52 520.2 C137.7
							 520.2 143.82 526.32 143.82 535.5 C143.82 544.68 134.64 550.8 125.46 550.8 Z" class="st1"/>
			</g>
			<g id="shape5-10" v:mID="5" v:groupContext="shape" transform="translate(156.06,-229.5)">
				<title>Sheet.5</title>
				<path d="M125.46 550.8 L15.3 550.8 C6.12 550.8 0 544.68 0 535.5 C0 526.32 6.12 520.2 15.3 520.2 L128.52 520.2 C137.7
							 520.2 143.82 526.32 143.82 535.5 C143.82 544.68 134.64 550.8 125.46 550.8 Z" class="st1"/>
			</g>
			<g id="shape6-12" v:mID="6" v:groupContext="shape" transform="translate(156.06,-125.46)">
				<title>Sheet.6</title>
				<path d="M125.46 550.8 L15.3 550.8 C6.12 550.8 0 544.68 0 535.5 C0 526.32 6.12 520.2 15.3 520.2 L128.52 520.2 C137.7
							 520.2 143.82 526.32 143.82 535.5 C143.82 544.68 134.64 550.8 125.46 550.8 Z" class="st1"/>
			</g>
		</g>
	</g>
</svg>
