<?xml version="1.0" standalone="no"?><!DOCTYPE svg PUBLIC "-//W3C//DTD SVG 1.1//EN" "http://www.w3.org/Graphics/SVG/1.1/DTD/svg11.dtd"><svg t="1613620950928" class="icon" viewBox="0 0 1024 1024" version="1.1" xmlns="http://www.w3.org/2000/svg" p-id="9014" xmlns:xlink="http://www.w3.org/1999/xlink" width="200" height="200"><defs><style type="text/css"></style></defs><path d="M164.382118 916.299294a104.207059 104.207059 0 1 1 104.207058-104.146823c0 57.404235-46.742588 104.146824-104.207058 104.146823M818.537412 60.235294c57.464471 0 104.207059 46.742588 104.207059 104.207059s-46.742588 104.207059-104.207059 104.207059-104.207059-46.742588-104.207059-104.207059S761.072941 60.235294 818.537412 60.235294m-39.574588 401.829647H203.053176a131.553882 131.553882 0 0 1-131.433411-131.433412c0-72.463059 58.910118-131.433412 131.433411-131.433411h454.896942a164.623059 164.623059 0 0 0 160.587294 129.686588 164.683294 164.683294 0 0 0 164.442353-164.442353A164.683294 164.683294 0 0 0 818.537412 0a164.261647 164.261647 0 0 0-161.852236 138.962824H203.053176A191.909647 191.909647 0 0 0 11.384471 330.631529a191.909647 191.909647 0 0 0 191.668705 191.668706h575.909648c73.426824 0 133.12 59.693176 133.12 133.12a133.240471 133.240471 0 0 1-133.12 133.059765H326.475294a164.141176 164.141176 0 0 0-162.093176-140.769882A164.562824 164.562824 0 0 0 0 812.152471a164.562824 164.562824 0 0 0 164.382118 164.382117 164.442353 164.442353 0 0 0 160.045176-127.819294h454.53553c106.616471 0 193.355294-86.738824 193.355294-193.355294a193.536 193.536 0 0 0-193.355294-193.295059" fill="#69becb" p-id="9015"></path></svg>