<?xml version="1.0" encoding="UTF-8"?>
<svg width="32px" height="32px" viewBox="0 0 32 32" version="1.1" xmlns="http://www.w3.org/2000/svg" xmlns:xlink="http://www.w3.org/1999/xlink">
    <title>一格电量</title>
    <g id="Page-1" stroke="none" stroke-width="1" fill="none" fill-rule="evenodd">
        <g id="电池电量" transform="translate(-333.000000, -221.000000)" fill-rule="nonzero">
            <g id="合并形状" transform="translate(333.000000, 221.000000)">
                <rect id="Rectangle-path" fill="#000000" opacity="0" x="0" y="0" width="32" height="32"></rect>
                <path d="M6.26086956,6.95652175 L6.26086956,29.2173913 C6.26086956,29.9857875 6.88377773,30.6086957 7.65217391,30.6086957 L24.3478261,30.6086957 C24.7168229,30.6086957 25.0707067,30.4621122 25.3316268,30.201192 C25.592547,29.9402719 25.7391304,29.5863882 25.7391304,29.2173913 L25.7391304,6.95652175 C25.7391304,6.5875249 25.592547,6.23364119 25.3316268,5.97272101 C25.0707067,5.71180084 24.7168229,5.56521741 24.3478261,5.56521741 L7.65217391,5.56521741 C6.88377773,5.56521741 6.26086956,6.18812558 6.26086956,6.95652175 Z M24.3478261,4.17391303 C25.0858198,4.17391303 25.7935872,4.46707989 26.3154276,4.98892026 C26.8372679,5.51076062 27.1304348,6.21852804 27.1304348,6.95652175 L27.1304348,29.2173913 C27.1304348,30.7541837 25.8846184,32 24.3478261,32 L7.65217391,32 C6.11538156,32 4.86956522,30.7541837 4.86956522,29.2173913 L4.86956522,6.95652175 C4.86956522,6.21852804 5.16273207,5.51076062 5.68457242,4.98892026 C6.20641278,4.46707989 6.91418019,4.17391303 7.65217391,4.17391303 L24.3478261,4.17391303 Z M9.04347825,26.4347826 C8.27508207,26.4347826 7.65217389,27.0576908 7.65217389,27.826087 C7.65217389,28.5944831 8.27508207,29.2173913 9.04347825,29.2173913 L22.9565217,29.2173913 C23.7249179,29.2173913 24.3478261,28.5944831 24.3478261,27.826087 C24.3478261,27.0576908 23.7249179,26.4347826 22.9565217,26.4347826 L9.04347825,26.4347826 Z M10.4347826,0 L21.5652174,0 C22.3336136,0 22.9565218,0.622908172 22.9565218,1.39130434 L22.9565218,2.78260869 L9.04347825,2.78260869 L9.04347825,1.39130434 C9.04347825,1.02230749 9.19006168,0.668423786 9.45098186,0.407503608 C9.71190204,0.14658343 10.0657857,0 10.4347826,0 Z" id="Shape" fill="#EA6060"></path>
            </g>
        </g>
    </g>
</svg>