<?xml version="1.0" encoding="UTF-8"?>
<svg width="32px" height="32px" viewBox="0 0 32 32" version="1.1" xmlns="http://www.w3.org/2000/svg" xmlns:xlink="http://www.w3.org/1999/xlink">
    <title>切片</title>
    <g id="Page-1" stroke="none" stroke-width="1" fill="none" fill-rule="evenodd">
        <g id="电池电量" transform="translate(-333.000000, -310.000000)" fill-rule="nonzero">
            <g id="两格-黄" transform="translate(333.000000, 310.000000)">
                <polygon id="不可采样" fill="#000000" opacity="0" points="0 0 32 0 32 32 0 32"></polygon>
                <path d="M6.37500772,6.95653125 L6.37500772,29.2174063 C6.37500772,29.9857947 6.99063171,30.6086875 7.75001544,30.6086875 L24.2499846,30.6086875 C25.0093683,30.6086875 25.6249923,29.9857947 25.6249923,29.2174063 L25.6249923,6.95653125 C25.6249923,6.18813057 25.0093804,5.56521875 24.2499846,5.56521875 L7.75001544,5.56521875 C6.99061965,5.56521875 6.37500772,6.18813057 6.37500772,6.95653125 Z M24.2499846,4.17390625 C24.9793365,4.17390625 25.6788185,4.46706388 26.1945482,4.98890909 C26.7102779,5.5107543 27,6.21853067 27,6.95653125 L27,29.2174063 C27,29.9554014 26.7102661,30.6631698 26.1945373,31.1850082 C25.6788084,31.7068467 24.9793312,32 24.2499846,32 L7.75001544,32 C7.02066884,32 6.32119157,31.7068467 5.80546275,31.1850082 C5.28973392,30.6631698 5,29.9554014 5,29.2174063 L5,6.95653125 C5,6.21853067 5.28972212,5.5107543 5.80545183,4.98890909 C6.32118154,4.46706388 7.02066349,4.17390625 7.75001544,4.17390625 L24.2499846,4.17390625 Z M9.12499228,20.8695625 C8.36560854,20.8695625 7.75001544,21.4924865 7.75001544,22.260875 L7.75001544,27.8260938 C7.75001544,28.5944822 8.36560854,29.2174063 9.12499228,29.2174063 L22.8750386,29.2174063 C23.6344223,29.2174063 24.2500154,28.5944822 24.2500154,27.8260938 L24.2500154,22.260875 C24.2500154,21.4924865 23.6344223,20.8695625 22.8750386,20.8695625 L9.1249614,20.8695625 L9.12499228,20.8695625 Z M10.5,0 L21.5,0 C21.8646747,0 22.2144133,0.146584289 22.4722773,0.407505997 C22.7301413,0.668427704 22.8750077,1.02231348 22.8750077,1.3913125 L22.8750077,2.78259375 L9.1249614,2.78259375 L9.1249614,1.3913125 C9.1249614,1.02230807 9.2698321,0.668417554 9.52770275,0.407494948 C9.7855734,0.146572342 10.1353199,0 10.5,0 Z" id="Shape" fill="#F3B202"></path>
            </g>
        </g>
    </g>
</svg>