<?xml version="1.0" encoding="UTF-8"?>
<svg width="32px" height="32px" viewBox="0 0 32 32" version="1.1" xmlns="http://www.w3.org/2000/svg" xmlns:xlink="http://www.w3.org/1999/xlink">
    <title>满格电量</title>
    <g id="Page-1" stroke="none" stroke-width="1" fill="none" fill-rule="evenodd">
        <g id="电池电量" transform="translate(-333.000000, -399.000000)">
            <g id="满格-蓝" transform="translate(333.000000, 399.000000)">
                <rect id="电量" x="0" y="0" width="32" height="32"></rect>
                <path d="M5.9971333,6.95652175 L5.9971333,29.2173913 C5.9971333,29.9857875 6.62004147,30.6086957 7.38843764,30.6086957 L24.0840898,30.6086957 C24.4530867,30.6086957 24.8069704,30.4621122 25.0678906,30.201192 C25.3288107,29.9402719 25.4753942,29.5863882 25.4753942,29.2173913 L25.4753942,6.95652175 C25.4753942,6.5875249 25.3288107,6.23364119 25.0678906,5.97272101 C24.8069704,5.71180084 24.4530867,5.56521741 24.0840898,5.56521741 L7.38843764,5.56521741 C6.62004147,5.56521741 5.9971333,6.18812558 5.9971333,6.95652175 Z M24.0840898,4.17391303 C24.8220835,4.17391303 25.529851,4.46707989 26.0516913,4.98892026 C26.5735317,5.51076062 26.8666985,6.21852804 26.8666985,6.95652175 L26.8666985,29.2173913 C26.8666985,30.7541837 25.6208822,32 24.0840898,32 L7.38843764,32 C5.8516453,32 4.60582896,30.7541837 4.60582896,29.2173913 L4.60582896,6.95652175 C4.60582896,6.21852804 4.8989958,5.51076062 5.42083616,4.98892026 C5.94267652,4.46707989 6.65044393,4.17391303 7.38843764,4.17391303 L24.0840898,4.17391303 Z M8.77974199,6.95652175 C8.41074513,6.95652175 8.05686143,7.10310518 7.79594125,7.36402536 C7.53502107,7.62494554 7.38843764,7.97882924 7.38843764,8.34782609 L7.38843764,27.826087 C7.38843764,28.5944831 8.01134581,29.2173913 8.77974199,29.2173913 L22.6927855,29.2173913 C23.0617823,29.2173913 23.415666,29.0708079 23.6765862,28.8098877 C23.9375064,28.5489675 24.0840898,28.1950838 24.0840898,27.826087 L24.0840898,8.34782609 C24.0840898,7.57942992 23.4611817,6.95652175 22.6927855,6.95652175 L8.77974199,6.95652175 Z M10.1710463,0 L21.3014811,0 C22.0698773,0 22.6927855,0.622908172 22.6927855,1.39130434 L22.6927855,2.78260869 L8.77974199,2.78260869 L8.77974199,1.39130434 C8.77974199,1.02230749 8.92632542,0.668423786 9.18724559,0.407503608 C9.44816577,0.14658343 9.80204948,0 10.1710463,0 Z" id="Shape" fill="#5CBCCB" fill-rule="nonzero"></path>
            </g>
        </g>
    </g>
</svg>